<svg xmlns="http://www.w3.org/2000/svg" xmlns:xlink="http://www.w3.org/1999/xlink" preserveAspectRatio="xMidYMid meet" version="1.0" viewBox="0.0 1082.8 2500.0 1417.2" zoomAndPan="magnify" style="fill: rgb(0, 0, 0);" original_string_length="1009"><g id="__id1392_svddb35q1t"><path d="M0,1611.2c895.9-528.4,1746.4,251.8,2018.8,458.3S2500,2346,2500,2346v154H0V1611.2z" style="fill: rgb(202, 238, 251);"/></g><g id="__id1393_svddb35q1t"><path d="M873.2,2500c0-432.4,595.3-502.5,963-502.5s663.8-599.7,663.8-656.6V2500H873.2z" style="fill: rgb(108, 186, 247);"/></g><g id="__id1394_svddb35q1t"><path d="M0,1867.7c381.8,448.8,703.6-97.3,1135.5-135.4c431.8-38.1,1364.5,491.1,1364.5,491.1V2500H0V1867.7z" opacity=".42" style="fill: rgb(206, 205, 205);"/></g><g id="__id1395_svddb35q1t"><path d="M531.8,2500c0,0-157.6-358.9,131.3-579.5s1054.9,322.2,1326.3,309c271.4-13.1,510.6-361.8,510.6-361.8V2500 H531.8z" opacity=".42" style="fill: rgb(206, 205, 205);"/></g></svg>