<svg xmlns="http://www.w3.org/2000/svg" xmlns:xlink="http://www.w3.org/1999/xlink" preserveAspectRatio="xMidYMid meet" version="1.0" viewBox="0.0 -4.1 942.5 213.3" zoomAndPan="magnify" style="fill: rgb(0, 0, 0);" original_string_length="21627"><g><linearGradient gradientUnits="userSpaceOnUse" id="__id11945_svddb35q1t" x1="1.821" x2="942.551" xlink:actuate="onLoad" xlink:show="other" xlink:type="simple" y1="69.991" y2="69.991"><stop offset="0" style="stop-color: rgb(108, 186, 247);"/><stop offset=".506" style="stop-color: rgb(32, 113, 176);"/><stop offset="1" style="stop-color: rgb(32, 113, 176);"/></linearGradient><path d="M2.1,75.7c17.7,11.6,42,5.5,59.2-6.7s30.1-29.6,46.2-43.3s37.9-23.9,58-17.5c27.5,8.7,37.1,41.6,45.7,69.2 c8.5,27.6,27.8,59.2,56.5,56c17.2-1.9,30.2-16.5,39.2-31.4c9-14.8,16.1-31.4,29.4-42.6c26.7-22.4,67.5-14.4,98.1,2.1 s57.8,40.6,91.5,49.4c50.1,13,101.5-10.5,148.5-32.2S775.1,36.6,823.4,55c20.4,7.8,37.8,22,58,30.1c20.2,8.2,46.4,8.6,60.7-7.8" stroke="url(#__id11945_svddb35q1t)" stroke-miterlimit="10" style="fill: none;"/><linearGradient gradientUnits="userSpaceOnUse" id="__id11946_svddb35q1t" x1="1.754" x2="941.456" xlink:actuate="onLoad" xlink:show="other" xlink:type="simple" y1="72.708" y2="72.708"><stop offset="0" style="stop-color: rgb(108, 186, 247);"/><stop offset=".506" style="stop-color: rgb(32, 113, 176);"/><stop offset="1" style="stop-color: rgb(32, 113, 176);"/></linearGradient><path d="M2,78C19,88.8,42.4,82.8,59.1,71C75.8,59.2,88.4,42.5,104,29.5c13.2-11,30.3-19.6,47-18.3 c3.1,0.2,6.2,0.8,9.3,1.8c26.6,8.5,36.1,40.2,44.5,66.9c8.4,26.6,26.9,56.6,54.5,54.5c12.9-1,23.5-8.2,32.1-17.9 c2.8-3.1,5.4-6.5,7.7-9.9c9.6-14.1,17.6-30.5,31-42c18.1-15.5,42-18.1,65.2-13.7c11.1,2.1,22.1,5.8,32.1,10.5 c28.6,13.4,54.9,33.4,86.1,42.8c2.3,0.7,4.7,1.4,7.1,1.9c41,9.9,82.9-1.6,121.9-15.8c9.4-3.4,18.7-7,27.9-10.6 c18.1-6.9,37.1-13.8,56.8-18.9c31.4-8.2,63.6-12.3,93.7-2.5c5.7,1.8,11.2,4.2,16.5,6.7c14,6.6,27.3,14.6,42.1,19.7 c20.5,7,46.7,6.9,61.7-8.7" stroke="url(#__id11946_svddb35q1t)" stroke-miterlimit="10" style="fill: none;"/><linearGradient gradientUnits="userSpaceOnUse" id="__id11947_svddb35q1t" x1="1.688" x2="940.361" xlink:actuate="onLoad" xlink:show="other" xlink:type="simple" y1="75.463" y2="75.463"><stop offset="0" style="stop-color: rgb(108, 186, 247);"/><stop offset=".506" style="stop-color: rgb(32, 113, 176);"/><stop offset="1" style="stop-color: rgb(32, 113, 176);"/></linearGradient><path d="M1.9,80.4c16.2,9.9,38.7,3.9,54.9-7.4C73,61.5,85.3,45.6,100.5,33.2c12.8-10.5,29.4-18.6,45.5-17.3 c3,0.3,6,0.8,9,1.8c25.7,8.3,35,38.8,43.3,64.5c8.2,25.7,26.1,51.4,52.6,52.9c12.7,0.8,23.2-6.3,32.3-15.1c2.9-2.8,5.7-5.9,8.2-9.2 c10.3-13.3,19.1-29.6,32.7-41.5c18.2-15.9,41.5-19.7,64.4-16.8c11,1.4,21.9,4.3,32,8.3c28.8,11.3,55.9,29.5,87.6,38.3 c2.4,0.7,4.8,1.3,7.2,1.8c41.7,9.4,84.3-0.5,123.3-12c9.4-2.8,18.7-5.7,27.8-8.5c18-5.5,37-11,56.9-15.4 c31.8-7.1,64.6-11.8,94.9-3.7c5.8,1.5,11.3,3.5,16.7,5.7c14.1,5.7,27.6,12.6,42.5,17c20.7,5.9,47,5.2,62.7-9.6" stroke="url(#__id11947_svddb35q1t)" stroke-miterlimit="10" style="fill: none;"/><linearGradient gradientUnits="userSpaceOnUse" id="__id11948_svddb35q1t" x1="1.622" x2="939.265" xlink:actuate="onLoad" xlink:show="other" xlink:type="simple" y1="78.38" y2="78.38"><stop offset="0" style="stop-color: rgb(108, 186, 247);"/><stop offset=".506" style="stop-color: rgb(32, 113, 176);"/><stop offset="1" style="stop-color: rgb(32, 113, 176);"/></linearGradient><path d="M1.9,82.7c15.5,9.1,37.1,3.2,52.7-7.8c15.6-11,27.6-26.2,42.4-38c12.4-10,28.4-17.6,44-16.2 c2.9,0.3,5.8,0.8,8.6,1.8c24.8,8.1,34,37.4,42.1,62.2c8.1,24.8,25.6,47.7,50.7,51.4c12.4,1.9,23-4.3,32.5-12.2c3-2.6,6-5.4,8.6-8.4 c11-12.5,20.6-28.7,34.3-41c18.3-16.3,41-21.4,63.6-20c10.9,0.7,21.8,2.9,31.9,6.1c29,9.2,56.8,25.6,89.1,33.8 c2.4,0.6,4.9,1.2,7.3,1.7c42.5,8.8,85.7,0.7,124.6-8.2c9.4-2.2,18.6-4.4,27.7-6.5c18-4.2,36.9-8.3,57.1-11.9 c32.2-5.9,65.5-11.3,96.1-4.8c5.8,1.2,11.4,2.9,16.8,4.7c14.2,4.7,27.9,10.7,43,14.2c20.9,4.8,47.2,3.6,63.7-10.6" stroke="url(#__id11948_svddb35q1t)" stroke-miterlimit="10" style="fill: none;"/><linearGradient gradientUnits="userSpaceOnUse" id="__id11949_svddb35q1t" x1="1.558" x2="938.169" xlink:actuate="onLoad" xlink:show="other" xlink:type="simple" y1="81.408" y2="81.408"><stop offset="0" style="stop-color: rgb(108, 186, 247);"/><stop offset=".506" style="stop-color: rgb(32, 113, 176);"/><stop offset="1" style="stop-color: rgb(32, 113, 176);"/></linearGradient><path d="M1.8,85c14.8,8.2,35.4,2.4,50.6-8.2c15.1-10.6,26.8-25.1,41.2-36.3c12.1-9.4,27.5-16.6,42.5-15.2 c2.8,0.3,5.6,0.8,8.3,1.7c23.9,7.9,33,36,40.9,59.9c7.9,23.8,25.2,44.2,48.8,49.9c12.1,2.9,22.8-2.3,32.7-9.4 c3.2-2.3,6.3-4.9,9.1-7.7c11.7-11.7,22.1-27.9,35.9-40.4c18.4-16.7,40.5-22.9,62.8-23.2c10.8-0.1,21.6,1.4,31.8,3.9 c29.2,7.1,57.7,21.7,90.6,29.3c2.5,0.6,5,1.1,7.5,1.6c43.2,8.3,87.1,1.8,126-4.4c9.4-1.5,18.6-3,27.6-4.4 c17.9-2.8,36.8-5.5,57.3-8.4c32.6-4.8,66.4-10.8,97.4-5.9c5.9,0.9,11.5,2.2,17,3.7c14.4,3.8,28.2,8.8,43.4,11.5 c21.1,3.7,47.5,1.9,64.6-11.5" stroke="url(#__id11949_svddb35q1t)" stroke-miterlimit="10" style="fill: none;"/><linearGradient gradientUnits="userSpaceOnUse" id="__id11950_svddb35q1t" x1="1.495" x2="937.072" xlink:actuate="onLoad" xlink:show="other" xlink:type="simple" y1="84.542" y2="84.542"><stop offset="0" style="stop-color: rgb(108, 186, 247);"/><stop offset=".506" style="stop-color: rgb(32, 113, 176);"/><stop offset="1" style="stop-color: rgb(32, 113, 176);"/></linearGradient><path d="M1.7,87.3c14,7.4,33.8,1.6,48.4-8.6c14.6-10.1,26-23.9,39.9-34.5c11.7-8.9,26.6-15.7,41.1-14.1 c2.7,0.3,5.4,0.8,8,1.7c23,7.7,31.9,34.6,39.7,57.5c7.8,22.9,24.9,40.9,46.9,48.4c11.8,4,22.6-0.3,32.9-6.5c3.3-2,6.6-4.3,9.6-7 c12.4-10.9,23.6-27,37.6-39.9c18.5-17.1,40-24.8,62-26.3c10.6-0.7,21.5-0.1,31.8,1.7c29.3,5.1,58.6,17.8,92.1,24.7 c2.5,0.5,5,1,7.6,1.5c43.9,7.8,88.6,2.9,127.3-0.7c9.4-0.9,18.5-1.7,27.5-2.4c17.9-1.4,36.6-2.7,57.5-5c33-3.6,67.3-10.3,98.6-7.1 c5.9,0.6,11.6,1.6,17.2,2.7c14.5,2.9,28.5,6.8,43.9,8.7c21.4,2.6,47.8,0.2,65.6-12.4" stroke="url(#__id11950_svddb35q1t)" stroke-miterlimit="10" style="fill: none;"/><linearGradient gradientUnits="userSpaceOnUse" id="__id11951_svddb35q1t" x1="1.433" x2="935.974" xlink:actuate="onLoad" xlink:show="other" xlink:type="simple" y1="87.78" y2="87.78"><stop offset="0" style="stop-color: rgb(108, 186, 247);"/><stop offset=".506" style="stop-color: rgb(32, 113, 176);"/><stop offset="1" style="stop-color: rgb(32, 113, 176);"/></linearGradient><path d="M1.7,89.6c13.3,6.6,32.2,0.8,46.2-8.9c14-9.7,25.2-22.8,38.7-32.8c11.4-8.4,25.7-14.7,39.6-13.1 c2.6,0.3,5.2,0.8,7.7,1.7c22.1,7.5,30.9,33.2,38.6,55.2c7.7,21.9,24.8,37.9,44.9,46.8c11.4,5.1,22.5,1.6,33.1-3.6 c3.4-1.7,6.8-3.8,10.1-6.3c13.1-10.1,25.1-26.1,39.2-39.3c18.6-17.5,39.5-26.5,61.2-29.5c10.5-1.4,21.3-1.6,31.7-0.5 c29.5,3,59.5,13.9,93.6,20.2c2.6,0.5,5.1,0.9,7.7,1.3c44.6,7.2,90,4.1,128.7,3.1c9.4-0.2,18.4-0.4,27.4-0.4 c17.8,0.1,36.5,0.1,57.6-1.5c33.3-2.4,68.2-9.8,99.8-8.2c6,0.3,11.7,0.9,17.3,1.7c14.6,2,28.8,4.9,44.3,6 c21.6,1.5,48-1.5,66.6-13.3" stroke="url(#__id11951_svddb35q1t)" stroke-miterlimit="10" style="fill: none;"/><linearGradient gradientUnits="userSpaceOnUse" id="__id11952_svddb35q1t" x1="1.374" x2="934.876" xlink:actuate="onLoad" xlink:show="other" xlink:type="simple" y1="90.355" y2="90.355"><stop offset="0" style="stop-color: rgb(108, 186, 247);"/><stop offset=".506" style="stop-color: rgb(32, 113, 176);"/><stop offset="1" style="stop-color: rgb(32, 113, 176);"/></linearGradient><path d="M1.6,91.9c12.6,5.8,30.5,0,44.1-9.3c13.5-9.3,24.4-21.7,37.4-31c11-7.9,24.8-13.7,38.1-12.1 c2.5,0.3,5,0.9,7.4,1.7c21.2,7.3,29.8,31.8,37.4,52.9c7.5,21,22.4,41.7,43,45.3c12.4,2.2,22.3,3.6,33.3-0.8 c3.6-1.4,7.1-3.3,10.5-5.6c13.7-9.3,26.6-25.2,40.9-38.8c18.8-17.9,39-28.2,60.4-32.6c10.4-2.2,21.2-3,31.6-2.7 c29.6,1,60.4,10,95.1,15.7c2.6,0.4,5.2,0.8,7.9,1.2c45.3,6.7,91.4,5.2,130,6.9c9.4,0.4,18.4,1,27.3,1.7c17.8,1.3,36.4,2.8,57.8,2 c33.7-1.3,69.1-9.3,101-9.3c6,0,11.8,0.3,17.5,0.7c14.7,1.1,29.1,2.9,44.7,3.2c21.8,0.4,48.3-3.2,67.5-14.2" stroke="url(#__id11952_svddb35q1t)" stroke-miterlimit="10" style="fill: none;"/><linearGradient gradientUnits="userSpaceOnUse" id="__id11953_svddb35q1t" x1="1.317" x2="933.778" xlink:actuate="onLoad" xlink:show="other" xlink:type="simple" y1="94.239" y2="94.239"><stop offset="0" style="stop-color: rgb(108, 186, 247);"/><stop offset=".506" style="stop-color: rgb(32, 113, 176);"/><stop offset="1" style="stop-color: rgb(32, 113, 176);"/></linearGradient><path d="M1.5,94.2c11.8,4.9,28.9-0.7,41.9-9.7C56.4,75.6,67,64,79.6,55.3c10.6-7.3,23.9-12.7,36.6-11 c2.4,0.3,4.7,0.9,7.1,1.7c20.3,7.1,28.8,30.4,36.2,50.5c7.4,20.1,21.3,43.1,41.1,43.8c11.7,5,22.1,5.6,33.5,2.1 c3.7-1.1,7.4-2.8,11-4.9c14.4-8.5,28.1-24.3,42.5-38.2c18.9-18.2,38.5-29.9,59.6-35.8c10.3-2.9,21-4.5,31.5-4.9 c29.8-1.1,61.4,6.1,96.7,11.2c2.6,0.4,5.3,0.8,8,1.1c46,6.1,92.8,6.3,131.4,10.7c9.4,1.1,18.3,2.3,27.2,3.7 c17.8,2.7,36.3,5.6,58,5.5c34.1-0.1,70-8.8,102.3-10.4c6.1-0.3,12-0.4,17.6-0.3c14.9,0.1,29.4,1,45.2,0.5 c22.1-0.7,48.6-4.9,68.5-15.1" stroke="url(#__id11953_svddb35q1t)" stroke-miterlimit="10" style="fill: none;"/><linearGradient gradientUnits="userSpaceOnUse" id="__id11954_svddb35q1t" x1="1.262" x2="932.68" xlink:actuate="onLoad" xlink:show="other" xlink:type="simple" y1="97.919" y2="97.919"><stop offset="0" style="stop-color: rgb(108, 186, 247);"/><stop offset=".506" style="stop-color: rgb(32, 113, 176);"/><stop offset="1" style="stop-color: rgb(32, 113, 176);"/></linearGradient><path d="M1.4,96.5c11.1,4.1,27.2-1.5,39.8-10.1C53.6,78,63.9,67,76.1,58.9c10.3-6.8,23-11.7,35.2-10 c2.3,0.3,4.5,0.9,6.8,1.7c19.4,6.9,27.7,29,35,48.2c7.2,19.1,20.5,41.1,39.2,42.3c11.5,5.8,21.9,7.6,33.6,5 c3.9-0.9,7.7-2.2,11.5-4.2c15.1-7.7,29.6-23.4,44.1-37.7c19-18.6,38-31.6,58.8-39c10.2-3.6,20.8-6,31.4-7.1 c30-3.1,62.3,2.2,98.2,6.7c2.7,0.3,5.4,0.7,8.1,1c46.8,5.6,94.2,7.5,132.7,14.5C620.1,82,629,84,637.9,86c17.7,4.1,36.2,8.3,58.2,9 c34.5,1,70.9-8.3,103.5-11.6c6.1-0.6,12.1-1,17.8-1.3c15-0.8,29.7-1,45.6-2.2c22.3-1.8,48.8-6.6,69.5-16" stroke="url(#__id11954_svddb35q1t)" stroke-miterlimit="10" style="fill: none;"/><linearGradient gradientUnits="userSpaceOnUse" id="__id11955_svddb35q1t" x1="1.212" x2="931.582" xlink:actuate="onLoad" xlink:show="other" xlink:type="simple" y1="101.769" y2="101.769"><stop offset="0" style="stop-color: rgb(108, 186, 247);"/><stop offset=".506" style="stop-color: rgb(32, 113, 176);"/><stop offset="1" style="stop-color: rgb(32, 113, 176);"/></linearGradient><path d="M1.4,98.8C11.7,102.1,27,96.6,39,88.4c11.9-8.1,21.9-18.3,33.7-25.8c9.9-6.3,22.1-10.7,33.7-8.9 c2.2,0.3,4.3,0.9,6.4,1.6c18.5,6.7,26.7,27.6,33.8,45.9c7.1,18.2,19.7,39,37.3,40.7c11.3,6.6,21.7,9.6,33.8,7.8 c4-0.6,8-1.7,11.9-3.4c15.7-6.9,31.1-22.5,45.8-37.1c19.1-19,37.5-33.3,58-42.1c10.1-4.3,20.7-7.4,31.3-9.3 c30.1-5.2,63.2-1.7,99.7,2.2c2.7,0.3,5.5,0.6,8.3,0.9c47.5,5,95.6,8.6,134.1,18.3c9.3,2.3,18.2,5,27.1,7.8 c17.7,5.5,36.1,11.1,58.3,12.5c34.9,2.2,71.8-7.8,104.7-12.7c6.2-0.9,12.2-1.6,18-2.3c15.1-1.7,30-2.9,46.1-5 c22.6-2.9,49.1-8.3,70.4-16.9" stroke="url(#__id11955_svddb35q1t)" stroke-miterlimit="10" style="fill: none;"/><linearGradient gradientUnits="userSpaceOnUse" id="__id11956_svddb35q1t" x1="1.166" x2="930.484" xlink:actuate="onLoad" xlink:show="other" xlink:type="simple" y1="102.904" y2="102.904"><stop offset="0" style="stop-color: rgb(108, 186, 247);"/><stop offset=".506" style="stop-color: rgb(32, 113, 176);"/><stop offset="1" style="stop-color: rgb(32, 113, 176);"/></linearGradient><path d="M1.3,101.2c9.7,2.5,24-3.1,35.4-10.8c11.3-7.7,21.1-17.2,32.5-24c9.5-5.8,21.1-9.7,32.2-7.9 c2.1,0.3,4.1,0.9,6.1,1.6c17.6,6.5,25.6,26.2,32.6,43.5c6.9,17.3,18.9,37,35.4,39.2c11.2,7.4,21.5,11.6,34,10.7 c4.1-0.3,8.3-1.2,12.4-2.7c16.4-6.1,32.7-21.6,47.4-36.6c19.2-19.4,37-35,57.2-45.3c10-5,20.5-8.9,31.2-11.5 c30.3-7.2,64.1-5.6,101.2-2.4c2.8,0.2,5.6,0.5,8.4,0.8c48.2,4.5,97,9.8,135.4,22.1c9.3,3,18.2,6.4,27,9.8c17.7,6.9,36,13.8,58.5,16 c35.3,3.3,72.8-7.3,106-13.8c6.3-1.2,12.3-2.3,18.1-3.3c15.2-2.6,30.3-4.9,46.5-7.7c22.8-4.1,49.4-10,71.4-17.8" stroke="url(#__id11956_svddb35q1t)" stroke-miterlimit="10" style="fill: none;"/><linearGradient gradientUnits="userSpaceOnUse" id="__id11957_svddb35q1t" x1="1.127" x2="929.387" xlink:actuate="onLoad" xlink:show="other" xlink:type="simple" y1="102.903" y2="102.903"><stop offset="0" style="stop-color: rgb(108, 186, 247);"/><stop offset=".506" style="stop-color: rgb(32, 113, 176);"/><stop offset="1" style="stop-color: rgb(32, 113, 176);"/></linearGradient><path d="M1.2,103.5c8.9,1.6,22.3-3.9,33.3-11.2C45.3,85,54.8,76.2,65.7,70c9.2-5.2,20.2-8.7,30.7-6.9 c2,0.3,3.9,0.9,5.8,1.6c16.7,6.3,24.6,24.8,31.5,41.2c6.8,16.3,18.1,35,33.4,37.7c11,8.2,21.3,13.3,34.2,13.5 c4.3,0.1,8.6-0.7,12.9-2c17.1-5.4,34.2-20.7,49-36.1c19.3-19.8,36.5-36.7,56.4-48.5c9.8-5.8,20.4-10.4,31.2-13.6 c30.4-9.3,65-9.5,102.7-6.9c2.8,0.2,5.7,0.4,8.5,0.6c48.9,4,98.4,10.9,136.8,25.8c9.3,3.6,18.1,7.7,26.9,11.9 c17.6,8.3,35.9,16.6,58.7,19.4c35.7,4.5,73.7-6.8,107.2-15c6.3-1.5,12.4-2.9,18.3-4.3c15.4-3.5,30.6-6.8,47-10.5 c23-5.2,49.6-11.7,72.4-18.8" stroke="url(#__id11957_svddb35q1t)" stroke-miterlimit="10" style="fill: none;"/><linearGradient gradientUnits="userSpaceOnUse" id="__id11958_svddb35q1t" x1="1.094" x2="928.29" xlink:actuate="onLoad" xlink:show="other" xlink:type="simple" y1="102.73" y2="102.73"><stop offset="0" style="stop-color: rgb(108, 186, 247);"/><stop offset=".506" style="stop-color: rgb(32, 113, 176);"/><stop offset="1" style="stop-color: rgb(32, 113, 176);"/></linearGradient><path d="M1.1,105.8c8.2,0.8,20.7-4.6,31.1-11.6c10.3-6.9,19.5-14.9,30-20.5C71,69,81.5,66,91.5,67.9 c1.9,0.4,3.7,0.9,5.5,1.6c15.8,6.1,23.5,23.4,30.3,38.9c6.7,15.4,17.2,33,31.5,36.2c10.8,9,21.2,15.5,34.4,16.4 c4.4,0.3,8.9-0.1,13.4-1.3c17.7-4.6,35.7-19.8,50.7-35.5c19.4-20.2,36-38.5,55.6-51.6c9.7-6.5,20.2-11.8,31.1-15.8 c30.6-11.3,65.9-13.5,104.2-11.4c2.9,0.2,5.7,0.3,8.6,0.5c49.6,3.4,99.8,12,138.1,29.6c9.3,4.3,18.1,9.1,26.8,13.9 c17.6,9.7,35.7,19.3,58.9,22.9c36.1,5.6,74.6-6.3,108.4-16.1c6.4-1.8,12.5-3.6,18.4-5.3c15.5-4.5,30.9-8.8,47.4-13.2 c23.3-6.3,49.9-13.4,73.4-19.7" stroke="url(#__id11958_svddb35q1t)" stroke-miterlimit="10" style="fill: none;"/><linearGradient gradientUnits="userSpaceOnUse" id="__id11959_svddb35q1t" x1="1.07" x2="927.194" xlink:actuate="onLoad" xlink:show="other" xlink:type="simple" y1="102.459" y2="102.459"><stop offset="0" style="stop-color: rgb(108, 186, 247);"/><stop offset=".506" style="stop-color: rgb(32, 113, 176);"/><stop offset="1" style="stop-color: rgb(32, 113, 176);"/></linearGradient><path d="M1.1,108.1c7.5,0,19.1-5.4,28.9-12c9.7-6.5,18.6-13.8,28.7-18.8c8.5-4.2,18.4-6.7,27.8-4.8 c1.7,0.4,3.5,0.9,5.2,1.6c14.9,5.9,22.5,21.9,29.1,36.5c6.5,14.5,16.4,31,29.6,34.6c10.7,9.8,21,17.5,34.6,19.3 c4.6,0.6,9.2,0.4,13.8-0.6c18.4-3.8,37.2-18.9,52.3-35c19.5-20.6,35.4-40.2,54.8-54.8c9.6-7.2,20-13.3,31-18 c30.8-13.3,66.9-17.4,105.7-15.9c2.9,0.1,5.8,0.2,8.8,0.4c50.3,2.9,101.2,13.2,139.5,33.4c9.3,4.9,18,10.4,26.7,15.9 c17.6,11.1,35.6,22.1,59,26.4c36.5,6.7,75.5-5.8,109.6-17.2c6.4-2.1,12.6-4.2,18.6-6.3c15.6-5.4,31.2-10.7,47.9-16 c23.5-7.4,50.2-15.1,74.3-20.6" stroke="url(#__id11959_svddb35q1t)" stroke-miterlimit="10" style="fill: none;"/><linearGradient gradientUnits="userSpaceOnUse" id="__id11960_svddb35q1t" x1=".936" x2="926.098" xlink:actuate="onLoad" xlink:show="other" xlink:type="simple" y1="102.142" y2="102.142"><stop offset="0" style="stop-color: rgb(108, 186, 247);"/><stop offset=".506" style="stop-color: rgb(32, 113, 176);"/><stop offset="1" style="stop-color: rgb(32, 113, 176);"/></linearGradient><path d="M1,110.4c6.7-0.8,17.4-6.2,26.8-12.3c9.2-6,17.8-12.7,27.5-17c8.1-3.7,17.5-5.7,26.3-3.7 c1.6,0.4,3.3,0.9,4.9,1.5c14,5.8,21.4,20.5,27.9,34.2c6.4,13.5,15.6,28.9,27.7,33.1c10.5,10.7,20.8,19.5,34.8,22.1 c4.7,0.9,9.5,0.9,14.3,0.1c19.1-3,38.7-18,54-34.4c19.6-21,34.9-41.9,54-57.9c9.5-8,19.9-14.7,30.9-20.2 c30.9-15.4,67.8-21.3,107.2-20.4c3,0.1,5.9,0.2,8.9,0.3C497.2,38,548.7,50,587,72.9c9.3,5.6,18,11.8,26.6,18 c17.5,12.5,35.5,24.8,59.2,29.9c36.9,7.9,76.4-5.3,110.9-18.3c6.5-2.4,12.7-4.9,18.8-7.3c15.7-6.3,31.5-12.7,48.3-18.7 c23.7-8.5,50.5-16.8,75.3-21.5" stroke="url(#__id11960_svddb35q1t)" stroke-miterlimit="10" style="fill: none;"/><linearGradient gradientUnits="userSpaceOnUse" id="__id11961_svddb35q1t" x1=".791" x2="925.003" xlink:actuate="onLoad" xlink:show="other" xlink:type="simple" y1="101.811" y2="101.811"><stop offset="0" style="stop-color: rgb(108, 186, 247);"/><stop offset=".506" style="stop-color: rgb(32, 113, 176);"/><stop offset="1" style="stop-color: rgb(32, 113, 176);"/></linearGradient><path d="M0.9,112.7c6-1.7,15.8-7,24.6-12.7c8.7-5.6,17-11.5,26.2-15.3c7.7-3.1,16.6-4.7,24.8-2.7 c1.5,0.4,3.1,0.9,4.6,1.5c13.2,5.6,20.4,19.1,26.7,31.9c6.2,12.6,14.8,26.9,25.8,31.6c10.3,11.5,20.6,21.5,35,25 c4.8,1.2,9.8,1.4,14.8,0.8c19.7-2.3,40.2-17.1,55.6-33.9c19.7-21.4,34.4-43.6,53.2-61.1c9.4-8.7,19.7-16.2,30.8-22.4 c31.1-17.4,68.7-25.2,108.8-24.9c3,0,6,0.1,9,0.2c51.8,1.8,104,15.4,142.2,41c9.3,6.2,17.9,13.1,26.5,20 c17.5,13.9,35.4,27.5,59.4,33.4c37.3,8.9,77.3-4.8,112.1-19.5c6.5-2.7,12.9-5.5,18.9-8.3c15.9-7.2,31.8-14.6,48.8-21.5 c24-9.7,50.7-18.5,76.3-22.4" stroke="url(#__id11961_svddb35q1t)" stroke-miterlimit="10" style="fill: none;"/><linearGradient gradientUnits="userSpaceOnUse" id="__id11962_svddb35q1t" x1=".638" x2="923.909" xlink:actuate="onLoad" xlink:show="other" xlink:type="simple" y1="101.483" y2="101.483"><stop offset="0" style="stop-color: rgb(108, 186, 247);"/><stop offset=".506" style="stop-color: rgb(32, 113, 176);"/><stop offset="1" style="stop-color: rgb(32, 113, 176);"/></linearGradient><path d="M0.9,115c5.3-2.5,14.2-7.7,22.5-13.1c8.1-5.2,16.2-10.4,25-13.5c7.4-2.6,15.7-3.8,23.4-1.6 c1.4,0.4,2.8,0.9,4.2,1.5c12.3,5.4,19.3,17.7,25.5,29.5c6.1,11.7,14,24.9,23.9,30c10.2,12.3,20.4,23.6,35.2,27.8 c5,1.4,10.1,1.9,15.2,1.6c20.4-1.5,41.7-16.2,57.2-33.3c19.8-21.8,33.9-45.4,52.4-64.3c9.2-9.4,19.6-17.7,30.7-24.6 c31.3-19.4,69.6-29.1,110.3-29.5c3,0,6.1,0,9.2,0.1C488,26.9,540.9,42.2,579,70.4c9.2,6.8,17.8,14.5,26.4,22 c17.4,15.3,35.3,30.3,59.6,36.9c37.7,10.1,78.2-4.3,113.3-20.6c6.6-3,13-6.2,19.1-9.3c16-8.1,32.1-16.6,49.2-24.2 c24.2-10.8,51-20.2,77.2-23.3" stroke="url(#__id11962_svddb35q1t)" stroke-miterlimit="10" style="fill: none;"/><linearGradient gradientUnits="userSpaceOnUse" id="__id11963_svddb35q1t" x1=".483" x2="922.815" xlink:actuate="onLoad" xlink:show="other" xlink:type="simple" y1="101.167" y2="101.167"><stop offset="0" style="stop-color: rgb(108, 186, 247);"/><stop offset=".506" style="stop-color: rgb(32, 113, 176);"/><stop offset="1" style="stop-color: rgb(32, 113, 176);"/></linearGradient><path d="M0.8,117.3c4.5-3.3,12.5-8.5,20.3-13.5c7.6-4.8,15.4-9.3,23.7-11.8c7-2.1,14.8-2.8,21.9-0.6 c1.3,0.4,2.6,0.9,3.9,1.5C82,98.1,88.9,109.3,95,120.2c5.9,10.7,14.3,21.4,21.9,28.5c12.1,11.2,20.2,25.6,35.4,30.7 c5.1,1.7,10.4,2.5,15.7,2.3c21.1-0.7,43.2-15.3,58.9-32.8c19.9-22.2,33.4-47.1,51.6-67.4c9.1-10.1,19.4-19.1,30.6-26.8 c31.5-21.4,70.5-33,111.8-34c3.1-0.1,6.2-0.1,9.3,0c53.2,0.7,106.8,17.7,144.9,48.5c9.2,7.5,17.8,15.8,26.3,24.1 c17.3,16.8,35.2,33.1,59.7,40.4c38.1,11.2,79.1-3.8,114.5-21.7c6.7-3.3,13.1-6.8,19.2-10.3c16.1-9,32.4-18.6,49.7-27 c24.4-12,51.3-21.8,78.2-24.2" stroke="url(#__id11963_svddb35q1t)" stroke-miterlimit="10" style="fill: none;"/><linearGradient gradientUnits="userSpaceOnUse" id="__id11964_svddb35q1t" x1=".337" x2="921.722" xlink:actuate="onLoad" xlink:show="other" xlink:type="simple" y1="100.865" y2="100.865"><stop offset="0" style="stop-color: rgb(108, 186, 247);"/><stop offset=".506" style="stop-color: rgb(32, 113, 176);"/><stop offset="1" style="stop-color: rgb(32, 113, 176);"/></linearGradient><path d="M0.7,119.6c3.8-4.1,10.9-9.3,18.1-13.8c7-4.4,14.5-8.2,22.5-10c6.6-1.5,13.8-1.8,20.4,0.4 c1.2,0.4,2.4,0.9,3.6,1.5c10.5,5,17.2,14.9,23.2,24.9c5.8,9.8,13.3,19.8,20,27c11.7,12.4,20,27.6,35.5,33.6c5.2,2,10.7,3,16.2,3 c21.7-0.1,44.7-14.4,60.5-32.3c20-22.6,32.9-48.8,50.8-70.6c9-10.9,19.3-20.6,30.5-29c31.7-23.5,71.4-36.9,113.3-38.5 c3.1-0.1,6.3-0.2,9.4-0.2c53.9,0.2,108.2,18.8,146.2,52.3c9.2,8.1,17.7,17.2,26.2,26.1c17.3,18.2,35.1,35.8,59.9,43.8 c38.5,12.3,80.1-3.4,115.8-22.8c6.7-3.7,13.2-7.4,19.4-11.3c16.2-10,32.7-20.5,50.1-29.7C867.2,61,894,50.6,921.7,49" stroke="url(#__id11964_svddb35q1t)" stroke-miterlimit="10" style="fill: none;"/><linearGradient gradientUnits="userSpaceOnUse" id="__id11965_svddb35q1t" x1=".207" x2="920.63" xlink:actuate="onLoad" xlink:show="other" xlink:type="simple" y1="100.58" y2="100.58"><stop offset="0" style="stop-color: rgb(108, 186, 247);"/><stop offset=".506" style="stop-color: rgb(32, 113, 176);"/><stop offset="1" style="stop-color: rgb(32, 113, 176);"/></linearGradient><path d="M0.6,122c3.1-5,9.2-10.1,16-14.2c6.5-4,13.7-7,21.3-8.3c6.3-1,12.9-0.8,18.9,1.5c1.1,0.4,2.2,0.9,3.3,1.4 c9.6,4.8,16.2,13.5,22,22.5c5.7,8.9,12.3,18.2,18.1,25.5c11.1,13.7,19.8,29.6,35.7,36.4c5.4,2.3,11,3.5,16.6,3.7 c22.4,0.8,46.2-13.5,62.1-31.7c20.1-22.9,32.3-50.5,50-73.8c8.8-11.6,19.1-22,30.5-31.2c31.8-25.5,72.4-40.8,114.8-43 c3.2-0.2,6.4-0.3,9.5-0.3c54.6-0.4,109.6,20,147.6,56.1c9.2,8.8,17.6,18.5,26.2,28.2c17.3,19.6,35,38.6,60.1,47.3 c38.9,13.5,81-2.9,117-24c6.8-4,13.3-8.1,19.6-12.3c16.4-10.9,33-22.5,50.6-32.4c24.9-14.2,51.8-25.2,80.1-26" stroke="url(#__id11965_svddb35q1t)" stroke-miterlimit="10" style="fill: none;"/><linearGradient gradientUnits="userSpaceOnUse" id="__id11966_svddb35q1t" x1=".096" x2="919.538" xlink:actuate="onLoad" xlink:show="other" xlink:type="simple" y1="100.314" y2="100.314"><stop offset="0" style="stop-color: rgb(108, 186, 247);"/><stop offset=".506" style="stop-color: rgb(32, 113, 176);"/><stop offset="1" style="stop-color: rgb(32, 113, 176);"/></linearGradient><path d="M0.6,124.3c2.4-5.8,7.6-10.9,13.8-14.6c6-3.6,12.9-5.9,20-6.5c5.9-0.5,12,0.2,17.5,2.5c1,0.4,2,0.9,3,1.4 c8.7,4.6,15.2,12.1,20.8,20.2c5.5,7.9,11.1,16.5,16.2,23.9c10.3,15,19.6,31.6,35.9,39.3c5.5,2.6,11.3,4,17.1,4.4 c23.1,1.6,47.7-12.6,63.8-31.2c20.2-23.3,31.8-52.3,49.2-76.9c8.7-12.3,19-23.5,30.4-33.4C320.3,26,361.5,8.8,404.6,6 c3.2-0.2,6.4-0.3,9.7-0.4c55.3-0.9,111,21.1,148.9,59.9c9.2,9.4,17.6,19.9,26.1,30.2c17.2,21,34.9,41.3,60.2,50.8 c39.3,14.6,81.9-2.4,118.2-25.1c6.8-4.3,13.4-8.7,19.7-13.3c16.5-11.8,33.3-24.4,51-35.2c25.1-15.3,52.1-26.9,81.1-27" stroke="url(#__id11966_svddb35q1t)" stroke-miterlimit="10" style="fill: none;"/><linearGradient gradientUnits="userSpaceOnUse" id="__id11967_svddb35q1t" x1="0" x2="918.473" xlink:actuate="onLoad" xlink:show="other" xlink:type="simple" y1="100.066" y2="100.066"><stop offset="0" style="stop-color: rgb(108, 186, 247);"/><stop offset=".506" style="stop-color: rgb(32, 113, 176);"/><stop offset="1" style="stop-color: rgb(32, 113, 176);"/></linearGradient><path d="M918.5,44.5c-50.7-1.3-93.3,35-133.5,65.8c-40.2,30.8-92.2,59.2-139.3,40.5c-38.3-15.2-58.6-56.1-86.4-86.5 c-40-43.9-100.9-67.9-160.1-63.2S283.6,39.1,251,88.7c-17.2,26.1-28.1,56.3-48.4,80.1s-55.2,39.8-83,25.5 c-16.7-8.6-26.8-25.8-36.1-42.1s-19.7-33.5-36.6-41.7S5,108.3,0.5,126.6" stroke="url(#__id11967_svddb35q1t)" stroke-miterlimit="10" style="fill: none;"/></g></svg>