<svg id="Capa_4" data-name="Capa 4" xmlns="http://www.w3.org/2000/svg" viewBox="0 0 500 500"><defs><style>.cls-1{fill:#9f9f9f;}.cls-2{fill:#45b2cc;opacity:0.5;}</style></defs><path class="cls-1" d="M482.64,397.34c-48.85,12.36-84.24,38.08-120,62.63-93.68,64.25-223.27,39.79-280.9-13.69-17.3-16-32.45-33.46-39.87-56.38-2.18-6.74-4.74-14.14,1-20s12.2-.25,17.46,2c68.07,28.95,137.1,35.7,208.44,12.36,31.69-10.36,64.35-5.16,96.63-1.18,4.33.53,8.67,1.14,9.48,6.52,3.1,20.6,17.74,16.41,30.88,13.95C429.06,399.2,452.19,393.34,482.64,397.34Z"/><path class="cls-2" d="M211.78,114.82c-12.86-47-8.85-64.76,23.94-113.4,13,30.43,146,343,147.33,347.75,5.13,18.51.71,22.76-18.08,19.17C305.85,357,246.91,347.53,186.46,361.6c-68.21,16-66.84-92.26-57.14-117.61,3.77-9.82,6.54-12.92,15.47-5.32,14.2,12.09,27.81,25.1,47.41,33.2-36.52-50.23-57.79-102.05-20.74-161.71C191,137.58,238.08,208.72,241.29,207,243.7,205.62,218.86,140.66,211.78,114.82Z"/></svg>