<?xml version="1.0" encoding="utf-8"?>
<!-- Generator: Adobe Illustrator 26.2.1, SVG Export Plug-In . SVG Version: 6.00 Build 0)  -->
<svg version="1.1" id="Capa_1" xmlns="http://www.w3.org/2000/svg" xmlns:xlink="http://www.w3.org/1999/xlink" x="0px" y="0px"
	 viewBox="0 0 133 291.4" style="enable-background:new 0 0 133 291.4;" xml:space="preserve">
<style type="text/css">
	.st0{fill:#007AAA;}
	.st1{fill:#0097C0;}
	.st2{fill:#00B2D0;}
	.st3{fill:#67C7DD;}
	.st4{fill:#B5E0ED;}
</style>
<g id="ala2">
	<path class="st2" d="M1.6,290.8C1.6,290.9,1.5,290.9,1.6,290.8C1,291,0.5,291.2,0,291.4c0.2-0.2,0.5-0.3,0.7-0.5
		c0.1-0.1,0.2-0.1,0.3-0.2c70.8-51.6,102.5-125.3,82.6-195.2c-4-14.1-10.1-28-18.4-41.6c-1.7-2.8-3.5-5.5-5.4-8.2
		C48.1,28.7,33.5,13.4,16.7,0c42.9,16.1,78.1,42.5,98.2,76.2c3.7,6.2,6.9,12.7,9.5,19.3c1.7,4.3,3.1,8.7,4.3,13
		C148.6,182,95.2,257.2,1.6,290.8z"/>
</g>
</svg>
