<?xml version="1.0" encoding="utf-8"?>
<!-- Generator: Adobe Illustrator 26.2.1, SVG Export Plug-In . SVG Version: 6.00 Build 0)  -->
<svg version="1.1" id="Capa_1" xmlns="http://www.w3.org/2000/svg" xmlns:xlink="http://www.w3.org/1999/xlink" x="0px" y="0px"
	 viewBox="0 0 172.5 341.1" style="enable-background:new 0 0 172.5 341.1;" xml:space="preserve">
<style type="text/css">
	.st0{fill:#007AAA;}
	.st1{fill:#0097C0;}
	.st2{fill:#00B2D0;}
	.st3{fill:#67C7DD;}
	.st4{fill:#B5E0ED;}
</style>
<g id="ala1">
	<path class="st1" d="M84.1,341.1c-0.2,0-0.4-0.1-0.6-0.2c31.8-61.8,39.4-129.2,19.7-193.8C98,129.8,90.8,112.7,81.5,96
		C73,80.5,62.8,65.4,50.8,50.6C46.5,45.3,42,40.1,37.3,35C25.9,22.6,13.5,10.9,0.1,0c37.6,11.2,71.7,28.3,99.6,50.5
		c16.8,13.4,31.4,28.6,43.1,45.7c1.9,2.7,3.7,5.5,5.4,8.2c8.3,13.5,14.4,27.5,18.4,41.6C186.5,215.7,154.9,289.5,84.1,341.1z"/>
</g>
</svg>
