<?xml version="1.0" encoding="utf-8"?>
<!-- Generator: Adobe Illustrator 26.2.1, SVG Export Plug-In . SVG Version: 6.00 Build 0)  -->
<svg version="1.1" xmlns="http://www.w3.org/2000/svg" xmlns:xlink="http://www.w3.org/1999/xlink" x="0px" y="0px"
	 viewBox="0 0 460.1 63.3" style="enable-background:new 0 0 460.1 63.3;" xml:space="preserve">
<style type="text/css">
	.st0{display:none;}
	.st1{display:inline;fill:#0097C0;}
	.st2{fill:#007AAA;}
	.st3{fill:#0097C0;}
	.st4{fill:#00B2D0;}
	.st5{fill:#67C7DD;}
	.st6{fill:#B5E0ED;}
</style>
<g id="Capa_8" class="st0">
</g>
<g id="liber">
	<path class="st2" d="M8.9,58c3.3,0,6.4-0.1,9.1-0.4c2.8-0.3,5.2-0.6,7.3-1c2.4-0.4,4.6-0.9,6.6-1.4L30.7,62c-0.3,0-0.8-0.1-1.5-0.1
		c-0.7,0-1.4-0.1-2.3-0.1c-0.8,0-1.7,0-2.6-0.1c-0.9,0-1.8,0-2.6,0c-0.8,0-1.5,0-2.2,0s-1.1,0-1.4,0H0v-0.2c0.2-0.6,0.3-1.3,0.5-2.2
		c0.2-0.9,0.3-2,0.4-3.2c0.1-1.3,0.2-2.8,0.3-4.6c0.1-1.8,0.1-3.9,0.1-6.3V17.8c0-2.4,0-4.5-0.1-6.3C1.1,9.7,1,8.2,0.9,6.9
		C0.8,5.6,0.6,4.5,0.5,3.6C0.3,2.8,0.2,2,0,1.4V1.3h10.1v0.2C9.9,2,9.8,2.8,9.6,3.6c-0.2,0.9-0.3,2-0.4,3.3C9.2,8.2,9.1,9.7,9,11.5
		c-0.1,1.8-0.1,3.9-0.1,6.3V58z"/>
	<path class="st2" d="M40.1,61.5c0.2-0.6,0.3-1.3,0.5-2.2c0.1-0.9,0.3-2,0.4-3.2c0.1-1.3,0.2-2.8,0.3-4.6c0.1-1.8,0.1-3.9,0.1-6.3
		V17.8c0-2.4,0-4.5-0.1-6.3c-0.1-1.8-0.1-3.3-0.3-4.6c-0.1-1.3-0.2-2.4-0.4-3.3c-0.1-0.9-0.3-1.6-0.5-2.2V1.3h10.1v0.2
		C50,2,49.8,2.8,49.7,3.6c-0.2,0.9-0.3,2-0.4,3.3c-0.1,1.3-0.2,2.9-0.3,4.6c-0.1,1.8-0.1,3.9-0.1,6.3v27.4c0,2.4,0,4.5,0.1,6.3
		c0.1,1.8,0.2,3.3,0.3,4.6c0.1,1.3,0.2,2.4,0.4,3.2c0.2,0.9,0.3,1.6,0.5,2.2v0.2H40.1V61.5z"/>
	<path class="st2" d="M63.8,17.8c0-2.4,0-4.5-0.1-6.3c-0.1-1.8-0.1-3.3-0.3-4.6c-0.1-1.3-0.2-2.4-0.4-3.3c-0.2-0.9-0.3-1.6-0.5-2.2
		V1.3c0.6,0,1.2,0,1.8,0c0.5,0,1.1,0,1.8,0c0.7,0,1.3,0,2,0c1,0,2.4-0.1,4.1-0.3c1.7-0.2,4-0.3,6.7-0.3c2.5,0,4.9,0.3,7,1
		s4,1.6,5.5,2.8c1.6,1.2,2.8,2.8,3.7,4.6c0.9,1.8,1.3,3.9,1.3,6.2c0,1.9-0.3,3.7-0.8,5.2c-0.5,1.5-1.3,2.9-2.3,4
		c-1,1.1-2.1,2.1-3.5,2.9c-1.4,0.8-2.9,1.4-4.5,1.8c2.4,0.4,4.6,1,6.5,1.8c2,0.9,3.7,1.9,5.1,3.2c1.4,1.3,2.5,2.8,3.3,4.5
		c0.8,1.7,1.2,3.6,1.2,5.8c0,5.9-2,10.4-5.9,13.3c-3.9,3-9.7,4.4-17.5,4.4c-0.8,0-1.8,0-3-0.1c-1.1-0.1-2.3-0.1-3.4-0.2
		c-1.2-0.1-2.3-0.2-3.4-0.2c-1.1-0.1-2.1-0.1-3-0.1h-2.8v-0.2c0.2-0.6,0.3-1.3,0.5-2.2c0.2-0.9,0.3-2,0.4-3.2
		c0.1-1.3,0.2-2.8,0.3-4.6c0.1-1.8,0.1-3.9,0.1-6.3V17.8z M71.5,28.7c0.8,0.1,1.5,0.1,2.1,0.1c0.6,0,1.3,0,2,0
		c1.9,0,3.7-0.3,5.2-0.8c1.6-0.5,2.9-1.4,4-2.5c1.1-1.1,2-2.5,2.6-4.1c0.6-1.6,0.9-3.6,0.9-5.8c0-1.8-0.2-3.5-0.7-5
		c-0.4-1.5-1.1-2.8-2-3.8c-0.9-1.1-2-1.9-3.3-2.4c-1.3-0.6-2.8-0.8-4.4-0.8c-1.1,0-2,0-2.8,0.1c-0.8,0.1-1.5,0.2-2,0.3
		c-0.6,0.1-1.2,0.3-1.6,0.4V28.7z M79.3,31.8c-1.9,0-3.5,0.1-4.8,0.2c-1.3,0.1-2.3,0.3-3,0.4v12.8c0,3.3,0.1,6,0.2,8.1
		c0.1,2.1,0.3,3.9,0.5,5.2c1.1,0.1,2.1,0.3,3.2,0.4c1.1,0.1,1.9,0.2,2.6,0.2c5.3,0,9.1-1.2,11.5-3.5c2.4-2.3,3.6-5.9,3.6-10.8
		c0-1.9-0.3-3.7-0.9-5.2c-0.6-1.6-1.4-3-2.6-4.1c-1.1-1.2-2.6-2-4.3-2.7C83.6,32.1,81.6,31.8,79.3,31.8z"/>
	<path class="st2" d="M121.5,1.2c3.5,0,6.7-0.1,9.5-0.1c2.9,0,5.4-0.1,7.4-0.2s3.4-0.2,4.2-0.3l-2.1,5.6c-0.9-0.3-2-0.5-3.2-0.7
		c-1.1-0.2-2.4-0.3-3.9-0.5c-1.5-0.2-3.3-0.2-5.3-0.2c-0.7,0-1.5,0-2.4,0.1c-0.9,0-1.8,0.1-2.7,0.1c-1,0.1-2,0.1-3.1,0.2v23
		c2.9,0,5.5-0.1,7.8-0.3c2.3-0.1,4.3-0.3,5.9-0.4c1.9-0.2,3.6-0.4,5.1-0.6l-1.3,6.1c-1.9-0.3-3.9-0.5-5.9-0.7
		c-1.7-0.2-3.6-0.4-5.7-0.5c-2.1-0.2-4-0.2-5.9-0.2V58c3.3,0,6.4-0.1,9.1-0.4c2.8-0.3,5.2-0.6,7.3-1c2.4-0.4,4.6-0.9,6.6-1.4
		l-1.2,6.8c-0.3,0-0.8-0.1-1.5-0.1c-0.7,0-1.4-0.1-2.3-0.1c-0.8,0-1.7,0-2.6-0.1c-0.9,0-1.8,0-2.6,0c-0.8,0-1.5,0-2.2,0
		c-0.6,0-1.1,0-1.4,0H111v-0.2c0.2-0.6,0.3-1.3,0.5-2.2c0.2-0.9,0.3-2,0.4-3.2c0.1-1.3,0.2-2.8,0.3-4.6c0.1-1.8,0.1-3.9,0.1-6.3
		V17.8c0-2.4,0-4.5-0.1-6.3c-0.1-1.8-0.1-3.3-0.3-4.6c-0.1-1.3-0.2-2.4-0.4-3.3c-0.2-0.9-0.3-1.6-0.5-2.2V1.3
		C114.5,1.3,118,1.2,121.5,1.2z"/>
	<path class="st2" d="M162.2,45.2c0,2.4,0,4.5,0.1,6.3c0.1,1.8,0.2,3.3,0.3,4.6c0.1,1.3,0.2,2.4,0.4,3.2c0.2,0.9,0.3,1.6,0.5,2.2
		v0.2h-10.1v-0.2c0.2-0.6,0.3-1.3,0.5-2.2c0.2-0.9,0.3-2,0.4-3.2c0.1-1.3,0.2-2.8,0.3-4.6c0.1-1.8,0.1-3.9,0.1-6.3V17.8
		c0-2.4,0-4.5-0.1-6.3c-0.1-1.8-0.2-3.3-0.3-4.6c-0.1-1.3-0.2-2.4-0.4-3.3c-0.2-0.9-0.3-1.6-0.5-2.2V1.3l1.8,0.2
		c0.5,0.1,1.1,0.1,1.8,0.1c0.7,0,1.3,0,2,0c1.1,0,2.6-0.1,4.4-0.4c1.9-0.3,4.2-0.4,7.1-0.4c2.7,0,5.2,0.4,7.5,1.1
		c2.3,0.7,4.3,1.8,6,3.2c1.7,1.4,3,3.1,3.9,5.2c0.9,2,1.4,4.3,1.4,6.9c0,2-0.3,3.9-0.8,5.6c-0.5,1.7-1.3,3.3-2.2,4.7
		c-0.9,1.4-2.1,2.6-3.4,3.7c-1.3,1.1-2.8,2-4.4,2.7l14.8,20.8c0.7,1,1.4,1.9,2,2.7c0.6,0.8,1.2,1.4,1.8,2c0.6,0.5,1.1,1,1.7,1.3
		c0.5,0.4,1.1,0.6,1.6,0.8v0.2h-12.2c-0.1-0.5-0.4-1.2-0.8-2.1c-0.5-0.9-1-1.8-1.6-2.6l-14.9-21c-0.6,0.1-1.3,0.1-1.9,0.1
		c-0.6,0-1.3,0.1-2,0.1c-0.8,0-1.6,0-2.4-0.1c-0.8-0.1-1.6-0.2-2.4-0.3V45.2z M162.2,32.4c0.8,0.2,1.5,0.3,2.3,0.4
		c0.8,0.1,1.5,0.1,2.3,0.1c2.1,0,4-0.3,5.8-0.9c1.7-0.6,3.2-1.6,4.4-2.9c1.2-1.3,2.2-2.9,2.8-4.8c0.7-1.9,1-4.2,1-6.8
		c0-2.1-0.2-4-0.7-5.7c-0.5-1.7-1.2-3.2-2.1-4.4c-0.9-1.2-2.1-2.1-3.6-2.8s-3.1-1-5-1c-1.9,0-3.5,0.1-4.6,0.3
		c-1.2,0.2-2,0.4-2.6,0.6V32.4z"/>
</g>
<g id="salus">
	<path class="st2" d="M255.4,10.9h-0.9c-0.2-0.6-0.6-1.4-1.1-2.2c-0.5-0.8-1.1-1.6-1.9-2.3c-0.8-0.7-1.8-1.3-2.9-1.8
		c-1.1-0.5-2.5-0.7-4-0.7c-1.4,0-2.6,0.2-3.7,0.6c-1.1,0.4-2,1-2.7,1.8c-0.7,0.8-1.3,1.7-1.6,2.7c-0.4,1-0.5,2.2-0.5,3.5
		c0,2,0.6,4,1.7,5.8c1.1,1.8,2.6,3.7,4.3,5.5c1.7,1.8,3.6,3.6,5.6,5.4c2,1.8,3.8,3.7,5.6,5.6c1.7,1.9,3.1,4,4.3,6.1
		c1.1,2.1,1.7,4.4,1.7,6.8c0,1.8-0.3,3.7-0.9,5.5c-0.6,1.8-1.6,3.5-2.9,5c-1.3,1.5-3,2.6-5.1,3.6c-2.1,0.9-4.6,1.4-7.4,1.4
		c-1.6,0-3.1-0.1-4.6-0.4c-1.4-0.3-2.8-0.7-4-1.1c-1.2-0.4-2.3-0.9-3.3-1.4c-1-0.5-1.8-1-2.4-1.4l1-9.3h1.1c0.3,1.3,0.8,2.6,1.5,3.8
		c0.7,1.2,1.6,2.2,2.6,3.2c1,0.9,2.2,1.6,3.5,2.2c1.3,0.5,2.8,0.8,4.3,0.8c1.4,0,2.7-0.2,3.9-0.7c1.1-0.4,2.1-1,2.9-1.8
		c0.8-0.8,1.4-1.7,1.9-2.8c0.4-1.1,0.7-2.2,0.7-3.5c0-1.8-0.3-3.4-1-4.9c-0.6-1.5-1.5-2.9-2.5-4.3c-1.1-1.3-2.2-2.7-3.6-3.9
		c-1.3-1.3-2.7-2.5-4.1-3.8c-1.4-1.3-2.8-2.6-4.1-3.9c-1.3-1.3-2.5-2.8-3.6-4.3c-1.1-1.5-1.9-3.2-2.5-4.9c-0.6-1.8-1-3.7-1-5.8
		c0-2.2,0.4-4.2,1.3-6c0.9-1.8,2-3.3,3.4-4.6c1.4-1.3,3-2.2,4.8-2.9c1.8-0.7,3.7-1,5.6-1c1.4,0,2.7,0.1,3.9,0.3
		c1.2,0.2,2.2,0.5,3.2,0.8c0.9,0.3,1.8,0.6,2.5,0.9c0.7,0.3,1.3,0.6,1.7,0.8L255.4,10.9z"/>
	<path class="st2" d="M311.2,61.7v-0.2c0.1-0.1,0.1-0.4,0.1-0.6c0-0.3,0-0.5,0-0.8c0-0.9-0.1-1.8-0.4-2.9c-0.2-1.1-0.7-2.4-1.4-3.9
		l-5.1-11.5c-1.6-0.1-3.7-0.1-6.3-0.1c-2.6,0-5.4,0-8.5,0c-2.2,0-4.4,0-6.4,0c-2.1,0-3.9,0-5.6,0.1L273,53c-0.4,1-0.9,2.2-1.3,3.4
		c-0.5,1.2-0.7,2.5-0.7,3.8c0,0.4,0,0.7,0.1,0.9c0.1,0.2,0.1,0.4,0.2,0.5v0.2h-8.6v-0.2c0.5-0.5,1.1-1.5,1.9-2.8
		c0.8-1.4,1.6-3.1,2.5-5.1L291.1,0h3.4l22.9,51.5c0.5,1.2,1.1,2.4,1.7,3.5c0.6,1.1,1.1,2.2,1.6,3.1c0.5,0.9,1,1.7,1.3,2.3
		c0.4,0.6,0.7,1,0.8,1.2v0.2H311.2z M283.9,38.1c1.6,0,3.3,0,5,0c1.7,0,3.4,0,5,0c1.6,0,3.2,0,4.7,0c1.5,0,2.9,0,4.1-0.1L291,11.2
		l-11.6,26.9H283.9z"/>
	<path class="st2" d="M336.9,58c3.3,0,6.4-0.1,9.1-0.4c2.8-0.3,5.2-0.6,7.3-1c2.4-0.4,4.6-0.9,6.6-1.4l-1.2,6.8
		c-0.3,0-0.8-0.1-1.5-0.1c-0.7,0-1.4-0.1-2.3-0.1c-0.8,0-1.7,0-2.6-0.1c-0.9,0-1.8,0-2.6,0c-0.8,0-1.5,0-2.2,0c-0.6,0-1.1,0-1.4,0
		H328v-0.2c0.2-0.6,0.3-1.3,0.5-2.2c0.2-0.9,0.3-2,0.4-3.2c0.1-1.3,0.2-2.8,0.3-4.6c0.1-1.8,0.1-3.9,0.1-6.3V17.8
		c0-2.4,0-4.5-0.1-6.3c-0.1-1.8-0.1-3.3-0.3-4.6c-0.1-1.3-0.2-2.4-0.4-3.3c-0.2-0.9-0.3-1.6-0.5-2.2V1.3h10.1v0.2
		c-0.2,0.6-0.3,1.3-0.5,2.2c-0.2,0.9-0.3,2-0.4,3.3c-0.1,1.3-0.2,2.9-0.3,4.6c-0.1,1.8-0.1,3.9-0.1,6.3V58z"/>
	<path class="st2" d="M410.9,17.8c0-2.4,0-4.5-0.1-6.3c-0.1-1.8-0.1-3.3-0.3-4.6c-0.1-1.3-0.2-2.4-0.4-3.3c-0.1-0.9-0.3-1.6-0.5-2.2
		V1.3h7.5v0.2c-0.2,0.6-0.3,1.3-0.5,2.2c-0.2,0.9-0.3,2-0.4,3.3c-0.1,1.3-0.2,2.9-0.3,4.6c-0.1,1.8-0.1,3.9-0.1,6.3v22.8
		c0,4-0.6,7.4-1.7,10.3c-1.2,2.8-2.8,5.2-4.8,7c-2.1,1.8-4.5,3.1-7.4,4s-6,1.2-9.4,1.2c-3.4,0-6.6-0.4-9.5-1.2
		c-2.9-0.8-5.5-2.1-7.7-3.8c-2.2-1.8-3.9-4-5.1-6.8c-1.2-2.8-1.9-6.2-1.9-10.2V17.8c0-2.4,0-4.5-0.1-6.3c-0.1-1.8-0.1-3.3-0.3-4.6
		c-0.1-1.3-0.2-2.4-0.4-3.3c-0.2-0.9-0.3-1.6-0.5-2.2V1.3h10.1v0.2c-0.2,0.6-0.3,1.3-0.5,2.2c-0.2,0.9-0.3,2-0.4,3.3
		c-0.1,1.3-0.2,2.9-0.3,4.6c-0.1,1.8-0.1,3.9-0.1,6.3v23.6c0,3.3,0.5,6.1,1.5,8.3c1,2.2,2.3,3.9,3.9,5.2c1.6,1.3,3.5,2.2,5.6,2.7
		c2.1,0.5,4.2,0.8,6.4,0.8c2.2,0,4.3-0.3,6.4-0.8c2.1-0.5,3.9-1.4,5.5-2.7c1.6-1.3,2.9-3,3.9-5.2c1-2.2,1.5-4.9,1.5-8.3V17.8z"/>
	<path class="st2" d="M454.1,10.9h-0.9c-0.2-0.6-0.6-1.4-1.1-2.2c-0.5-0.8-1.1-1.6-1.9-2.3c-0.8-0.7-1.8-1.3-2.9-1.8
		c-1.1-0.5-2.5-0.7-4-0.7c-1.4,0-2.6,0.2-3.7,0.6c-1.1,0.4-2,1-2.7,1.8c-0.7,0.8-1.3,1.7-1.6,2.7c-0.4,1-0.5,2.2-0.5,3.5
		c0,2,0.6,4,1.7,5.8s2.6,3.7,4.3,5.5c1.7,1.8,3.6,3.6,5.6,5.4c2,1.8,3.8,3.7,5.6,5.6c1.7,1.9,3.1,4,4.3,6.1c1.1,2.1,1.7,4.4,1.7,6.8
		c0,1.8-0.3,3.7-0.9,5.5c-0.6,1.8-1.6,3.5-2.9,5c-1.3,1.5-3,2.6-5.1,3.6c-2.1,0.9-4.6,1.4-7.4,1.4c-1.6,0-3.1-0.1-4.6-0.4
		c-1.4-0.3-2.8-0.7-4-1.1c-1.2-0.4-2.3-0.9-3.3-1.4c-1-0.5-1.8-1-2.4-1.4l1-9.3h1.1c0.3,1.3,0.8,2.6,1.5,3.8
		c0.7,1.2,1.6,2.2,2.6,3.2c1,0.9,2.2,1.6,3.5,2.2c1.3,0.5,2.8,0.8,4.3,0.8c1.4,0,2.7-0.2,3.9-0.7c1.1-0.4,2.1-1,2.9-1.8
		c0.8-0.8,1.4-1.7,1.9-2.8c0.4-1.1,0.7-2.2,0.7-3.5c0-1.8-0.3-3.4-1-4.9c-0.6-1.5-1.5-2.9-2.5-4.3c-1.1-1.3-2.2-2.7-3.6-3.9
		c-1.3-1.3-2.7-2.5-4.1-3.8c-1.4-1.3-2.8-2.6-4.1-3.9c-1.3-1.3-2.5-2.8-3.6-4.3c-1.1-1.5-1.9-3.2-2.5-4.9c-0.6-1.8-1-3.7-1-5.8
		c0-2.2,0.4-4.2,1.3-6c0.9-1.8,2-3.3,3.4-4.6c1.4-1.3,3-2.2,4.8-2.9c1.8-0.7,3.7-1,5.6-1c1.4,0,2.7,0.1,3.9,0.3
		c1.2,0.2,2.2,0.5,3.2,0.8c0.9,0.3,1.8,0.6,2.5,0.9c0.7,0.3,1.3,0.6,1.7,0.8L454.1,10.9z"/>
</g>
<g id="cuerpo">
</g>
<g id="ala1">
</g>
<g id="ala2">
</g>
<g id="ala3">
</g>
<g id="ala4">
</g>
</svg>
