<?xml version="1.0" encoding="utf-8"?>
<!-- Generator: Adobe Illustrator 26.2.1, SVG Export Plug-In . SVG Version: 6.00 Build 0)  -->
<svg version="1.1" xmlns="http://www.w3.org/2000/svg" xmlns:xlink="http://www.w3.org/1999/xlink" x="0px" y="0px"
	 viewBox="0 0 458.2 538.2" style="enable-background:new 0 0 458.2 538.2;" xml:space="preserve">
<style type="text/css">
	.st0{fill:#007AAA;}
	.st1{fill:#0097C0;}
	.st2{fill:#00B2D0;}
	.st3{fill:#67C7DD;}
	.st4{fill:#B5E0ED;}
</style>
<g id="liber">
	<path class="st0" d="M9,533c3.3,0,6.4-0.1,9.1-0.4c2.8-0.3,5.2-0.6,7.3-1c2.4-0.4,4.6-0.9,6.6-1.4l-1.2,6.8c-0.3,0-0.8-0.1-1.5-0.1
		c-0.7,0-1.4-0.1-2.3-0.1c-0.8,0-1.7,0-2.6-0.1c-0.9,0-1.8,0-2.6,0c-0.8,0-1.5,0-2.2,0s-1.1,0-1.4,0H0.1v-0.2
		c0.2-0.6,0.3-1.3,0.5-2.2c0.2-0.9,0.3-2,0.4-3.2c0.1-1.3,0.2-2.8,0.3-4.6c0.1-1.8,0.1-3.9,0.1-6.3v-27.4c0-2.4,0-4.5-0.1-6.3
		c-0.1-1.8-0.1-3.3-0.3-4.6c-0.1-1.3-0.2-2.4-0.4-3.3c-0.2-0.9-0.3-1.6-0.5-2.2v-0.2h10.1v0.2c-0.2,0.6-0.3,1.3-0.5,2.2
		c-0.2,0.9-0.3,2-0.4,3.3c-0.1,1.3-0.2,2.9-0.3,4.6C9,488.3,9,490.4,9,492.8V533z"/>
	<path class="st0" d="M40.2,536.5c0.2-0.6,0.3-1.3,0.5-2.2c0.1-0.9,0.3-2,0.4-3.2c0.1-1.3,0.2-2.8,0.3-4.6c0.1-1.8,0.1-3.9,0.1-6.3
		v-27.4c0-2.4,0-4.5-0.1-6.3c-0.1-1.8-0.1-3.3-0.3-4.6c-0.1-1.3-0.2-2.4-0.4-3.3c-0.1-0.9-0.3-1.6-0.5-2.2v-0.2h10.1v0.2
		c-0.2,0.6-0.3,1.3-0.5,2.2c-0.2,0.9-0.3,2-0.4,3.3c-0.1,1.3-0.2,2.9-0.3,4.6c-0.1,1.8-0.1,3.9-0.1,6.3v27.4c0,2.4,0,4.5,0.1,6.3
		c0.1,1.8,0.2,3.3,0.3,4.6c0.1,1.3,0.2,2.4,0.4,3.2c0.2,0.9,0.3,1.6,0.5,2.2v0.2H40.2V536.5z"/>
	<path class="st0" d="M63.9,492.8c0-2.4,0-4.5-0.1-6.3c-0.1-1.8-0.1-3.3-0.3-4.6c-0.1-1.3-0.2-2.4-0.4-3.3c-0.2-0.9-0.3-1.6-0.5-2.2
		v-0.2c0.6,0,1.2,0,1.8,0c0.5,0,1.1,0,1.8,0c0.7,0,1.3,0,2,0c1,0,2.4-0.1,4.1-0.3c1.7-0.2,4-0.3,6.7-0.3c2.5,0,4.9,0.3,7,1
		s4,1.6,5.5,2.8c1.6,1.2,2.8,2.8,3.7,4.6s1.3,3.9,1.3,6.2c0,1.9-0.3,3.7-0.8,5.2c-0.5,1.5-1.3,2.9-2.3,4c-1,1.1-2.1,2.1-3.5,2.9
		c-1.4,0.8-2.9,1.4-4.5,1.8c2.4,0.4,4.6,1,6.5,1.8c2,0.9,3.7,1.9,5.1,3.2c1.4,1.3,2.5,2.8,3.3,4.5c0.8,1.7,1.2,3.6,1.2,5.8
		c0,5.9-2,10.4-5.9,13.3c-3.9,3-9.7,4.4-17.5,4.4c-0.8,0-1.8,0-3-0.1c-1.1-0.1-2.3-0.1-3.4-0.2c-1.2-0.1-2.3-0.2-3.4-0.2
		c-1.1-0.1-2.1-0.1-3-0.1h-2.8v-0.2c0.2-0.6,0.3-1.3,0.5-2.2c0.2-0.9,0.3-2,0.4-3.2c0.1-1.3,0.2-2.8,0.3-4.6
		c0.1-1.8,0.1-3.9,0.1-6.3V492.8z M71.6,503.7c0.8,0.1,1.5,0.1,2.1,0.1c0.6,0,1.3,0,2,0c1.9,0,3.7-0.3,5.2-0.8
		c1.6-0.5,2.9-1.4,4-2.5c1.1-1.1,2-2.5,2.6-4.1c0.6-1.6,0.9-3.6,0.9-5.8c0-1.8-0.2-3.5-0.7-5c-0.4-1.5-1.1-2.8-2-3.8
		c-0.9-1.1-2-1.9-3.3-2.4c-1.3-0.6-2.8-0.8-4.4-0.8c-1.1,0-2,0-2.8,0.1c-0.8,0.1-1.5,0.2-2,0.3c-0.6,0.1-1.2,0.3-1.6,0.4V503.7z
		 M79.4,506.8c-1.9,0-3.5,0.1-4.8,0.2c-1.3,0.1-2.3,0.3-3,0.4v12.8c0,3.3,0.1,6,0.2,8.1c0.1,2.1,0.3,3.9,0.5,5.2
		c1.1,0.1,2.1,0.3,3.2,0.4c1.1,0.1,1.9,0.2,2.6,0.2c5.3,0,9.1-1.2,11.5-3.5c2.4-2.3,3.6-5.9,3.6-10.8c0-1.9-0.3-3.7-0.9-5.2
		c-0.6-1.6-1.4-3-2.6-4.1c-1.1-1.2-2.6-2-4.3-2.7C83.7,507.1,81.7,506.8,79.4,506.8z"/>
	<path class="st0" d="M121.6,476.2c3.5,0,6.7-0.1,9.5-0.1c2.9,0,5.4-0.1,7.4-0.2c2.1-0.1,3.4-0.2,4.2-0.3l-2.1,5.6
		c-0.9-0.3-2-0.5-3.2-0.7c-1.1-0.2-2.4-0.3-3.9-0.5c-1.5-0.2-3.3-0.2-5.3-0.2c-0.7,0-1.5,0-2.4,0.1c-0.9,0-1.8,0.1-2.7,0.1
		c-1,0.1-2,0.1-3.1,0.2v23c2.9,0,5.5-0.1,7.8-0.3c2.3-0.1,4.3-0.3,5.9-0.4c1.9-0.2,3.6-0.4,5.1-0.6l-1.3,6.1
		c-1.9-0.3-3.9-0.5-5.9-0.7c-1.7-0.2-3.6-0.4-5.7-0.5c-2.1-0.2-4-0.2-5.9-0.2V533c3.3,0,6.4-0.1,9.1-0.4c2.8-0.3,5.2-0.6,7.3-1
		c2.4-0.4,4.6-0.9,6.6-1.4l-1.2,6.8c-0.3,0-0.8-0.1-1.5-0.1c-0.7,0-1.4-0.1-2.3-0.1s-1.7,0-2.6-0.1c-0.9,0-1.8,0-2.6,0
		c-0.8,0-1.5,0-2.2,0c-0.6,0-1.1,0-1.4,0h-18.2v-0.2c0.2-0.6,0.3-1.3,0.5-2.2c0.2-0.9,0.3-2,0.4-3.2c0.1-1.3,0.2-2.8,0.3-4.6
		c0.1-1.8,0.1-3.9,0.1-6.3v-27.4c0-2.4,0-4.5-0.1-6.3c-0.1-1.8-0.1-3.3-0.3-4.6c-0.1-1.3-0.2-2.4-0.4-3.3c-0.2-0.9-0.3-1.6-0.5-2.2
		v-0.2C114.6,476.3,118.1,476.3,121.6,476.2z"/>
	<path class="st0" d="M162.3,520.2c0,2.4,0,4.5,0.1,6.3c0.1,1.8,0.2,3.3,0.3,4.6c0.1,1.3,0.2,2.4,0.4,3.2c0.2,0.9,0.3,1.6,0.5,2.2
		v0.2h-10.1v-0.2c0.2-0.6,0.3-1.3,0.5-2.2c0.2-0.9,0.3-2,0.4-3.2c0.1-1.3,0.2-2.8,0.3-4.6c0.1-1.8,0.1-3.9,0.1-6.3v-27.4
		c0-2.4,0-4.5-0.1-6.3c-0.1-1.8-0.2-3.3-0.3-4.6c-0.1-1.3-0.2-2.4-0.4-3.3c-0.2-0.9-0.3-1.6-0.5-2.2v-0.2l1.8,0.2
		c0.5,0.1,1.1,0.1,1.8,0.1c0.7,0,1.3,0,2,0c1.1,0,2.6-0.1,4.4-0.4c1.9-0.3,4.2-0.4,7.1-0.4c2.7,0,5.2,0.4,7.5,1.1
		c2.3,0.7,4.3,1.8,6,3.2c1.7,1.4,3,3.1,3.9,5.2c0.9,2,1.4,4.3,1.4,6.9c0,2-0.3,3.9-0.8,5.6c-0.5,1.7-1.3,3.3-2.2,4.7
		c-0.9,1.4-2.1,2.6-3.4,3.7c-1.3,1.1-2.8,2-4.4,2.7l14.8,20.8c0.7,1,1.4,1.9,2,2.7c0.6,0.8,1.2,1.4,1.8,2c0.6,0.5,1.1,1,1.7,1.3
		c0.5,0.4,1.1,0.6,1.6,0.8v0.2h-12.2c-0.1-0.5-0.4-1.2-0.8-2.1c-0.5-0.9-1-1.8-1.6-2.6l-14.9-21c-0.6,0.1-1.3,0.1-1.9,0.1
		c-0.6,0-1.3,0.1-2,0.1c-0.8,0-1.6,0-2.4-0.1c-0.8-0.1-1.6-0.2-2.4-0.3V520.2z M162.3,507.4c0.8,0.2,1.5,0.3,2.3,0.4
		c0.8,0.1,1.5,0.1,2.3,0.1c2.1,0,4-0.3,5.8-0.9c1.7-0.6,3.2-1.6,4.4-2.9c1.2-1.3,2.2-2.9,2.8-4.8s1-4.2,1-6.8c0-2.1-0.2-4-0.7-5.7
		c-0.5-1.7-1.2-3.2-2.1-4.4c-0.9-1.2-2.1-2.1-3.6-2.8s-3.1-1-5-1c-1.9,0-3.5,0.1-4.6,0.3c-1.2,0.2-2,0.4-2.6,0.6V507.4z"/>
</g>
<g id="salus">
	<path class="st0" d="M255.5,485.9h-0.9c-0.2-0.6-0.6-1.4-1.1-2.2c-0.5-0.8-1.1-1.6-1.9-2.3c-0.8-0.7-1.8-1.3-2.9-1.8
		c-1.1-0.5-2.5-0.7-4-0.7c-1.4,0-2.6,0.2-3.7,0.6c-1.1,0.4-2,1-2.7,1.8c-0.7,0.8-1.3,1.7-1.6,2.7c-0.4,1-0.5,2.2-0.5,3.5
		c0,2,0.6,4,1.7,5.8c1.1,1.8,2.6,3.7,4.3,5.5s3.6,3.6,5.6,5.4c2,1.8,3.8,3.7,5.6,5.6c1.7,1.9,3.1,4,4.3,6.1c1.1,2.1,1.7,4.4,1.7,6.8
		c0,1.8-0.3,3.7-0.9,5.5c-0.6,1.8-1.6,3.5-2.9,5c-1.3,1.5-3,2.6-5.1,3.6c-2.1,0.9-4.6,1.4-7.4,1.4c-1.6,0-3.1-0.1-4.6-0.4
		c-1.4-0.3-2.8-0.7-4-1.1c-1.2-0.4-2.3-0.9-3.3-1.4c-1-0.5-1.8-1-2.4-1.4l1-9.3h1.1c0.3,1.3,0.8,2.6,1.5,3.8
		c0.7,1.2,1.6,2.2,2.6,3.2c1,0.9,2.2,1.6,3.5,2.2c1.3,0.5,2.8,0.8,4.3,0.8c1.4,0,2.7-0.2,3.9-0.7c1.1-0.4,2.1-1,2.9-1.8
		c0.8-0.8,1.4-1.7,1.9-2.8c0.4-1.1,0.7-2.2,0.7-3.5c0-1.8-0.3-3.4-1-4.9c-0.6-1.5-1.5-2.9-2.5-4.3s-2.2-2.7-3.6-3.9
		c-1.3-1.3-2.7-2.5-4.1-3.8c-1.4-1.3-2.8-2.6-4.1-3.9c-1.3-1.3-2.5-2.8-3.6-4.3c-1.1-1.5-1.9-3.2-2.5-4.9c-0.6-1.8-1-3.7-1-5.8
		c0-2.2,0.4-4.2,1.3-6c0.9-1.8,2-3.3,3.4-4.6c1.4-1.3,3-2.2,4.8-2.9c1.8-0.7,3.7-1,5.6-1c1.4,0,2.7,0.1,3.9,0.3
		c1.2,0.2,2.2,0.5,3.2,0.8c0.9,0.3,1.8,0.6,2.5,0.9c0.7,0.3,1.3,0.6,1.7,0.8L255.5,485.9z"/>
	<path class="st0" d="M311.4,536.7v-0.2c0.1-0.1,0.1-0.4,0.1-0.6c0-0.3,0-0.5,0-0.8c0-0.9-0.1-1.8-0.4-2.9s-0.7-2.4-1.4-3.9
		l-5.1-11.5c-1.6-0.1-3.7-0.1-6.3-0.1c-2.6,0-5.4,0-8.5,0c-2.2,0-4.4,0-6.4,0c-2.1,0-3.9,0-5.6,0.1l-4.8,11.1
		c-0.4,1-0.9,2.2-1.3,3.4c-0.5,1.2-0.7,2.5-0.7,3.8c0,0.4,0,0.7,0.1,0.9c0.1,0.2,0.1,0.4,0.2,0.5v0.2h-8.6v-0.2
		c0.5-0.5,1.1-1.5,1.9-2.8c0.8-1.4,1.6-3.1,2.5-5.1l24.1-53.6h3.4l22.9,51.5c0.5,1.2,1.1,2.4,1.7,3.5c0.6,1.1,1.1,2.2,1.6,3.1
		c0.5,0.9,1,1.7,1.3,2.3c0.4,0.6,0.7,1,0.8,1.2v0.2H311.4z M284,513.1c1.6,0,3.3,0,5,0c1.7,0,3.4,0,5,0c1.6,0,3.2,0,4.7,0
		c1.5,0,2.9,0,4.1-0.1l-11.8-26.8l-11.6,26.9H284z"/>
	<path class="st0" d="M337,533c3.3,0,6.4-0.1,9.1-0.4c2.8-0.3,5.2-0.6,7.3-1c2.4-0.4,4.6-0.9,6.6-1.4l-1.2,6.8
		c-0.3,0-0.8-0.1-1.5-0.1c-0.7,0-1.4-0.1-2.3-0.1c-0.8,0-1.7,0-2.6-0.1c-0.9,0-1.8,0-2.6,0c-0.8,0-1.5,0-2.2,0c-0.6,0-1.1,0-1.4,0
		h-18.2v-0.2c0.2-0.6,0.3-1.3,0.5-2.2c0.2-0.9,0.3-2,0.4-3.2c0.1-1.3,0.2-2.8,0.3-4.6c0.1-1.8,0.1-3.9,0.1-6.3v-27.4
		c0-2.4,0-4.5-0.1-6.3c-0.1-1.8-0.1-3.3-0.3-4.6c-0.1-1.3-0.2-2.4-0.4-3.3c-0.2-0.9-0.3-1.6-0.5-2.2v-0.2h10.1v0.2
		c-0.2,0.6-0.3,1.3-0.5,2.2c-0.2,0.9-0.3,2-0.4,3.3c-0.1,1.3-0.2,2.9-0.3,4.6c-0.1,1.8-0.1,3.9-0.1,6.3V533z"/>
	<path class="st0" d="M411,492.8c0-2.4,0-4.5-0.1-6.3c-0.1-1.8-0.1-3.3-0.3-4.6c-0.1-1.3-0.2-2.4-0.4-3.3c-0.1-0.9-0.3-1.6-0.5-2.2
		v-0.2h7.5v0.2c-0.2,0.6-0.3,1.3-0.5,2.2c-0.2,0.9-0.3,2-0.4,3.3c-0.1,1.3-0.2,2.9-0.3,4.6c-0.1,1.8-0.1,3.9-0.1,6.3v22.8
		c0,4-0.6,7.4-1.7,10.3c-1.2,2.8-2.8,5.2-4.8,7s-4.5,3.1-7.4,4s-6,1.2-9.4,1.2c-3.4,0-6.6-0.4-9.5-1.2c-2.9-0.8-5.5-2.1-7.7-3.8
		c-2.2-1.8-3.9-4-5.1-6.8c-1.2-2.8-1.9-6.2-1.9-10.2v-23.2c0-2.4,0-4.5-0.1-6.3c-0.1-1.8-0.1-3.3-0.3-4.6c-0.1-1.3-0.2-2.4-0.4-3.3
		c-0.2-0.9-0.3-1.6-0.5-2.2v-0.2h10.1v0.2c-0.2,0.6-0.3,1.3-0.5,2.2c-0.2,0.9-0.3,2-0.4,3.3c-0.1,1.3-0.2,2.9-0.3,4.6
		c-0.1,1.8-0.1,3.9-0.1,6.3v23.6c0,3.3,0.5,6.1,1.5,8.3c1,2.2,2.3,3.9,3.9,5.2c1.6,1.3,3.5,2.2,5.6,2.7c2.1,0.5,4.2,0.8,6.4,0.8
		c2.2,0,4.3-0.3,6.4-0.8c2.1-0.5,3.9-1.4,5.5-2.7c1.6-1.3,2.9-3,3.9-5.2c1-2.2,1.5-4.9,1.5-8.3V492.8z"/>
	<path class="st0" d="M454.2,485.9h-0.9c-0.2-0.6-0.6-1.4-1.1-2.2c-0.5-0.8-1.1-1.6-1.9-2.3c-0.8-0.7-1.8-1.3-2.9-1.8
		c-1.1-0.5-2.5-0.7-4-0.7c-1.4,0-2.6,0.2-3.7,0.6c-1.1,0.4-2,1-2.7,1.8c-0.7,0.8-1.3,1.7-1.6,2.7c-0.4,1-0.5,2.2-0.5,3.5
		c0,2,0.6,4,1.7,5.8c1.1,1.8,2.6,3.7,4.3,5.5c1.7,1.8,3.6,3.6,5.6,5.4c2,1.8,3.8,3.7,5.6,5.6c1.7,1.9,3.1,4,4.3,6.1
		c1.1,2.1,1.7,4.4,1.7,6.8c0,1.8-0.3,3.7-0.9,5.5c-0.6,1.8-1.6,3.5-2.9,5c-1.3,1.5-3,2.6-5.1,3.6c-2.1,0.9-4.6,1.4-7.4,1.4
		c-1.6,0-3.1-0.1-4.6-0.4c-1.4-0.3-2.8-0.7-4-1.1c-1.2-0.4-2.3-0.9-3.3-1.4c-1-0.5-1.8-1-2.4-1.4l1-9.3h1.1c0.3,1.3,0.8,2.6,1.5,3.8
		c0.7,1.2,1.6,2.2,2.6,3.2c1,0.9,2.2,1.6,3.5,2.2c1.3,0.5,2.8,0.8,4.3,0.8c1.4,0,2.7-0.2,3.9-0.7c1.1-0.4,2.1-1,2.9-1.8
		c0.8-0.8,1.4-1.7,1.9-2.8c0.4-1.1,0.7-2.2,0.7-3.5c0-1.8-0.3-3.4-1-4.9c-0.6-1.5-1.5-2.9-2.5-4.3c-1.1-1.3-2.2-2.7-3.6-3.9
		c-1.3-1.3-2.7-2.5-4.1-3.8c-1.4-1.3-2.8-2.6-4.1-3.9c-1.3-1.3-2.5-2.8-3.6-4.3c-1.1-1.5-1.9-3.2-2.5-4.9c-0.6-1.8-1-3.7-1-5.8
		c0-2.2,0.4-4.2,1.3-6c0.9-1.8,2-3.3,3.4-4.6c1.4-1.3,3-2.2,4.8-2.9c1.8-0.7,3.7-1,5.6-1c1.4,0,2.7,0.1,3.9,0.3
		c1.2,0.2,2.2,0.5,3.2,0.8c0.9,0.3,1.8,0.6,2.5,0.9c0.7,0.3,1.3,0.6,1.7,0.8L454.2,485.9z"/>
</g>
<g id="cuerpo">
	<path class="st1" d="M410.3,317.7c0,0-85.4,84.9-270.7,35c0,0-54.7-15.7-82.7,11.1c-11.1,10.6-31.5,6.8-48.5,11.6l86,14.4
		c19,3.2,37.3,9.7,54.3,18.9C191,431.6,295,463.5,410.3,317.7z"/>
</g>
<g id="ala1">
	<path class="st1" d="M209,341.1c-0.2,0-0.4-0.1-0.6-0.2c31.8-61.8,39.4-129.2,19.7-193.8c-5.2-17.3-12.4-34.4-21.7-51.1
		c-8.5-15.5-18.7-30.6-30.7-45.4c-4.3-5.3-8.8-10.5-13.5-15.6C150.8,22.6,138.4,10.9,125,0c37.6,11.2,71.7,28.3,99.6,50.5
		c16.8,13.4,31.4,28.6,43.1,45.7c1.9,2.7,3.7,5.5,5.4,8.2c8.3,13.5,14.4,27.5,18.4,41.6C311.4,215.7,279.8,289.5,209,341.1z"/>
</g>
<g id="ala2">
	<path class="st2" d="M209.6,341.2C209.6,341.3,209.5,341.3,209.6,341.2c-0.6,0.2-1.1,0.4-1.6,0.6c0.2-0.2,0.5-0.3,0.7-0.5
		c0.1-0.1,0.2-0.1,0.3-0.2c70.8-51.6,102.5-125.3,82.6-195.2c-4-14.1-10.1-28-18.4-41.6c-1.7-2.8-3.5-5.5-5.4-8.2
		c-11.7-17-26.3-32.3-43.1-45.7c42.9,16.1,78.1,42.5,98.2,76.2c3.7,6.2,6.9,12.7,9.5,19.3c1.7,4.3,3.1,8.7,4.3,13
		C356.6,232.4,303.2,307.6,209.6,341.2z"/>
</g>
<g id="ala3">
	<path class="st3" d="M251.5,335.6c-13.9,3.2-28,5-41.8,5.6c-0.1,0-0.1,0-0.2,0c0,0,0.1,0,0.1,0c93.6-33.6,147-108.8,127-182.2
		c-1.2-4.4-2.6-8.7-4.3-13c-2.6-6.7-5.8-13.1-9.5-19.3c21.1,13.8,37.3,31.8,46.1,53.1c0.2,0.5,0.4,1,0.6,1.6
		C395,245.9,342.1,315,251.5,335.6z"/>
</g>
<g id="ala4">
	<path class="st4" d="M296.3,341.5c-29.7,6.8-59.8,6.2-86.6-0.2c13.8-0.6,27.9-2.5,41.8-5.6C342.1,315,395,245.9,369.6,181.3
		c-0.2-0.5-0.4-1.1-0.6-1.6c11.1,9.8,19.6,21.5,24.7,34.5C414.6,267.5,371,324.5,296.3,341.5z"/>
</g>
</svg>
