<svg id="Capa_4" data-name="Capa 4" xmlns="http://www.w3.org/2000/svg" viewBox="0 0 500 500"><defs><style>.cls-1{fill:#b7e0ed;}.cls-2{fill:#124789;}</style></defs><path class="cls-1" d="M425.9,224.92C418,202.23,401.67,180.66,376,162.59c-19.54-35.38-50.84-65.65-109.76-91.67C232.33,44.17,200.32,26.76,154.9,8.8c43,39.69,71.11,80.83,88.77,121a307.4,307.4,0,0,1,25.2,99.94,333.2,333.2,0,0,1-4.28,84.57c-7.63,43.08-21.55,75-28,88h0c40.85,7.13,75.69,7.08,104.75,1.89,41.16-7.36,70.71-25,89.31-47.19C465,316.05,462,259.78,425.9,224.92Z"/><path class="cls-2" d="M480,370.73s-97.75,97.19-309.86,40.07c0,0-62.62-18-94.67,12.7-12.7,12.14-36.06,7.79-55.51,13.28,0,0,82.65,10,98.44,16.48s73,44.36,154.39,44.33C329.71,497.57,402.66,468.65,480,370.73Z"/></svg>