<?xml version="1.0" encoding="utf-8"?>
<!-- Generator: Adobe Illustrator 26.2.1, SVG Export Plug-In . SVG Version: 6.00 Build 0)  -->
<svg version="1.1" xmlns="http://www.w3.org/2000/svg" xmlns:xlink="http://www.w3.org/1999/xlink" x="0px" y="0px"
	 viewBox="0 0 127.4 351.3" style="enable-background:new 0 0 127.4 351.3;" xml:space="preserve">
<style type="text/css">
	.st0{display:none;}
	.st1{display:inline;fill:#0097C0;}
	.st2{fill:#007AAA;}
	.st3{fill:#0097C0;}
	.st4{fill:#00B2D0;}
	.st5{fill:#67C7DD;}
	.st6{fill:#B5E0ED;}
</style>
<g id="Capa_8" class="st0">
	<path class="st1" d="M342.8,141.5c0,0-85.4,84.9-270.7,35c0,0-54.7-15.7-82.7,11.1c-11.1,10.6-31.5,6.8-48.5,11.6l86,14.4
		c19,3.2,37.3,9.7,54.3,18.9C123.5,255.3,227.5,287.2,342.8,141.5z"/>
</g>
<g id="liber">
</g>
<g id="salus">
</g>
<g id="cuerpo">
</g>
<g id="ala1">
	<path class="st3" d="M0.6,351.3c-0.2-0.1-0.4-0.2-0.6-0.3c45.6-52.4,69.1-116,65.5-183.5c-1-18-3.9-36.3-8.8-54.8
		c-4.6-17.1-10.9-34.2-19-51.4c-2.9-6.2-6-12.3-9.4-18.3C20.2,28.2,10.9,13.8,0.5,0c33.8,19.9,62.9,44.6,84.7,72.8
		c13.1,17,23.6,35.3,31,54.6c1.2,3.1,2.3,6.2,3.2,9.3c4.8,15.1,7.5,30.1,8,44.8C130,254,81.6,318.1,0.6,351.3z"/>
</g>
<g id="ala2">
</g>
<g id="ala3">
</g>
<g id="ala4">
</g>
</svg>
