<?xml version="1.0" encoding="utf-8"?>
<!-- Generator: Adobe Illustrator 26.2.1, SVG Export Plug-In . SVG Version: 6.00 Build 0)  -->
<svg version="1.1" xmlns="http://www.w3.org/2000/svg" xmlns:xlink="http://www.w3.org/1999/xlink" x="0px" y="0px"
	 viewBox="0 0 132.8 291.3" style="enable-background:new 0 0 132.8 291.3;" xml:space="preserve">
<style type="text/css">
	.st0{display:none;}
	.st1{display:inline;fill:#0097C0;}
	.st2{fill:#007AAA;}
	.st3{fill:#0097C0;}
	.st4{fill:#00B2D0;}
	.st5{fill:#67C7DD;}
	.st6{fill:#B5E0ED;}
</style>
<g id="Capa_8" class="st0">
	<path class="st1" d="M188.5,81.5c0,0-85.4,84.9-270.7,35c0,0-54.7-15.7-82.7,11.1c-11.1,10.6-31.5,6.8-48.5,11.6l86,14.4
		c19,3.2,37.3,9.7,54.3,18.9C-30.8,195.4,73.3,227.3,188.5,81.5z"/>
</g>
<g id="liber">
</g>
<g id="salus">
</g>
<g id="cuerpo">
</g>
<g id="ala1">
</g>
<g id="ala2">
	<path class="st4" d="M1.6,290.8C1.6,290.8,1.6,290.8,1.6,290.8C1,291,0.5,291.2,0,291.3c0.2-0.2,0.5-0.3,0.7-0.5
		c0.1-0.1,0.2-0.1,0.3-0.2c70.8-51.6,102.5-125.3,82.6-195.2c-4-14.1-10.1-28-18.4-41.6c-1.7-2.8-3.5-5.5-5.4-8.2
		C48.1,28.6,33.5,13.4,16.7,0c42.9,16.1,78.1,42.5,98.2,76.2c3.7,6.2,6.9,12.7,9.5,19.3c1.7,4.3,3.1,8.7,4.3,13
		C148.6,182,95.2,257.1,1.6,290.8z"/>
</g>
<g id="ala3">
</g>
<g id="ala4">
</g>
</svg>
