<?xml version="1.0" encoding="utf-8"?>
<!-- Generator: Adobe Illustrator 26.2.1, SVG Export Plug-In . SVG Version: 6.00 Build 0)  -->
<svg version="1.1" xmlns="http://www.w3.org/2000/svg" xmlns:xlink="http://www.w3.org/1999/xlink" x="0px" y="0px"
	 viewBox="0 0 98.6 242.7" style="enable-background:new 0 0 98.6 242.7;" xml:space="preserve">
<style type="text/css">
	.st0{display:none;}
	.st1{display:inline;fill:#0097C0;}
	.st2{fill:#007AAA;}
	.st3{fill:#0097C0;}
	.st4{fill:#00B2D0;}
	.st5{fill:#67C7DD;}
	.st6{fill:#B5E0ED;}
</style>
<g id="Capa_8" class="st0">
	<path class="st1" d="M21,32.8c0,0-85.4,84.9-270.7,35c0,0-54.7-15.7-82.7,11.1c-11.1,10.6-31.5,6.8-48.5,11.6l86,14.4
		c19,3.2,37.3,9.7,54.3,18.9C-198.2,146.7-94.2,178.6,21,32.8z"/>
</g>
<g id="liber">
</g>
<g id="salus">
</g>
<g id="cuerpo">
</g>
<g id="ala1">
</g>
<g id="ala2">
</g>
<g id="ala3">
	<path class="st5" d="M34.5,218.1c-10.8,9.3-22.4,17.5-34.3,24.5c-0.1,0-0.1,0.1-0.2,0.1c0,0,0,0,0.1-0.1
		C67.1,169.2,79.3,77.8,27.4,22.2c-3.1-3.3-6.4-6.5-9.9-9.5C12.1,8,6.2,3.8,0.1,0C25.2,2.4,48,10.7,65.6,25.4
		c0.4,0.4,0.9,0.7,1.3,1.1C119.5,71.7,105,157.5,34.5,218.1z"/>
</g>
<g id="ala4">
</g>
</svg>
