<svg xmlns="http://www.w3.org/2000/svg" xmlns:xlink="http://www.w3.org/1999/xlink" viewBox="0 0 48 48" width="48" height="48" preserveAspectRatio="xMidYMid meet" style="width: 100%; height: 100%; transform: translate3d(0px, 0px, 0px); content-visibility: visible;"><defs><clipPath id="__lottie_element_2558"><rect width="48" height="48" x="0" y="0"></rect></clipPath></defs><g clip-path="url(#__lottie_element_2558)"><g transform="matrix(1,0,0,1,0,0)" opacity="1" style="display: block;"><g opacity="1" transform="matrix(1,0,0,1,24,24)"><path fill="rgb(255,255,255)" fill-opacity="1" d=" M-17,0 C-17,-9.388999938964844 -9.388999938964844,-17 0,-17 C9.388999938964844,-17 17,-9.388999938964844 17,0 C17,9.388999938964844 9.388999938964844,17 0,17 C-9.388999938964844,17 -17,9.388999938964844 -17,0z"></path><path stroke-linecap="round" stroke-linejoin="round" fill-opacity="0" stroke="rgb(0,0,0)" stroke-opacity="1" stroke-width="1" d=" M-17,0 C-17,-9.388999938964844 -9.388999938964844,-17 0,-17 C9.388999938964844,-17 17,-9.388999938964844 17,0 C17,9.388999938964844 9.388999938964844,17 0,17 C-9.388999938964844,17 -17,9.388999938964844 -17,0z"></path></g></g><g transform="matrix(1,0,0,1,0,0)" opacity="1" style="display: block;"><g opacity="1" transform="matrix(1,0,0,1,23.048999786376953,25.416000366210938)"><path stroke-linecap="round" stroke-linejoin="round" fill-opacity="0" stroke="rgb(83,109,254)" stroke-opacity="1" stroke-width="1" d=" M6.616000175476074,-2.743000030517578 C6.616000175476074,-2.743000030517578 4.793000221252441,1.8270000219345093 4.793000221252441,1.8270000219345093 C4.793000221252441,1.8270000219345093 1.9500000476837158,1.8270000219345093 1.9500000476837158,1.8270000219345093 C1.9500000476837158,1.8270000219345093 1.9500000476837158,11.630000114440918 1.9500000476837158,11.630000114440918 C1.9500000476837158,11.630000114440918 -3.0169999599456787,11.630000114440918 -3.0169999599456787,11.630000114440918 C-3.0169999599456787,11.630000114440918 -3.0169999599456787,1.8270000219345093 -3.0169999599456787,1.8270000219345093 C-3.0169999599456787,1.8270000219345093 -6.616000175476074,1.8270000219345093 -6.616000175476074,1.8270000219345093 C-6.616000175476074,1.8270000219345093 -6.616000175476074,-2.743000030517578 -6.616000175476074,-2.743000030517578 C-6.616000175476074,-2.743000030517578 -3.0169999599456787,-2.743000030517578 -3.0169999599456787,-2.743000030517578 C-3.0169999599456787,-2.743000030517578 -3.0169999599456787,-7.2769999504089355 -3.0169999599456787,-7.2769999504089355 C-3.0169999599456787,-9.685999870300293 -0.656000018119812,-11.630000114440918 1.7430000305175781,-11.630000114440918 C1.7430000305175781,-11.630000114440918 5.53000020980835,-11.630000114440918 5.53000020980835,-11.630000114440918 C5.53000020980835,-11.630000114440918 5.53000020980835,-7.2769999504089355 5.53000020980835,-7.2769999504089355 C5.53000020980835,-7.2769999504089355 2.74399995803833,-7.2769999504089355 2.74399995803833,-7.2769999504089355 C2.299999952316284,-7.2769999504089355 1.9500000476837158,-6.927999973297119 1.9500000476837158,-6.493000030517578 C1.9500000476837158,-6.493000030517578 1.9500000476837158,-2.743000030517578 1.9500000476837158,-2.743000030517578 C1.9500000476837158,-2.743000030517578 6.616000175476074,-2.743000030517578 6.616000175476074,-2.743000030517578z"></path></g></g></g></svg>