<svg xmlns="http://www.w3.org/2000/svg" version="1.1" xmlns:xlink="http://www.w3.org/1999/xlink"
    xmlns:svgjs="http://svgjs.dev/svgjs" viewBox="0 0 800 800">
    <defs>
        <linearGradient x1="50%" y1="0%" x2="50%" y2="100%" id="wwwhirl-grad">
            <stop stop-color="#03254e" stop-opacity="1" offset="45%"></stop>
            <stop stop-color="#e1e3e8" stop-opacity="1" offset="100%"></stop>
        </linearGradient>
    </defs>
    <g stroke-width="2" stroke="url(#wwwhirl-grad)" fill="none" stroke-linecap="round">
        <path
            d="M37.00000251770027 433.2519003975905C50.75000289917 420.4644000428236 75.50000358581553 371.87189869470956 103.000004348755 371.87189869470956C130.50000511169446 371.87189869470956 141.5000054168703 436.3456504834212 169.00000617980973 433.2519003975905C196.5000069427492 430.15815031175975 207.50000724792503 358.6718983284986 235.00000801086446 357.02189828272225C262.500008773804 355.37189823694587 273.5000090789798 427.3944002350844 301.0000098419193 425.33190017786393C328.50001060485874 423.26940012064347 339.5000109100345 351.24689812250494 367.000011672974 347.121898008064C394.50001243591345 342.99689789362316 405.5000127410893 405.32564962282544 433.0000135040287 405.5318996285475C460.5000142669682 405.7381496342695 471.50001457214404 338.2118977608717 499.0000153350834 348.11189803552986C526.5000160980228 358.0118983101881 537.5000164031987 451.4019009011305 565.0000171661382 453.0519009469069C592.5000179290777 454.70190099268325 603.5000182342535 364.0756484784162 631.000018997193 356.03189825525646C658.5000197601325 347.98814803209666 669.5000200653083 412.9981498356855 697.0000208282477 414.44189987573986C724.5000215911871 415.8856499157942 749.2500222778326 373.68689874506356 763.0000226593024 362.96189844751717 "
            transform="rotate(99, 400, 400)"></path>
        <path
            d="M48.00000244140632 432.2442657806432C61.33333614464971 419.84426543662687 85.3333368104878 372.72426412936477 112.00000421697456 372.72426412936477C138.6666716234613 372.72426412936477 149.33333858605602 435.24426586387295 176.00000599254278 432.2442657806432C202.66667339902952 429.2442656974134 213.33334036162427 359.92426377425113 240.000007768111 358.3242637298619C266.6666751745978 356.7242636854727 277.3333421371925 426.56426562306154 304.00000954367925 424.56426556757503C330.66667695016605 422.56426551208847 341.3333439127607 352.7242635744997 368.00001131924745 348.72426346352665C394.66667872573424 344.72426335255363 405.33334568832896 405.1642650293559 432.00001309481576 405.3642650349045C458.66668050130244 405.56426504045317 469.3333474638972 340.08426322382496 496.0000148703839 349.68426349016016C522.6666822768707 359.2842637564954 533.3333492394653 449.84426626892446 560.0000166459522 451.4442663133137C586.666684052439 453.0442663577029 597.3333510150337 365.16426391962574 624.0000184215204 357.36426370322835C650.6666858280073 349.564263486831 661.3333527906019 412.6042652357657 688.0000201970887 414.00426527460627C714.6666876035754 415.4042653134468 738.6666882694134 374.48426417819286 752.0000219726569 364.084263889663 "
            transform="rotate(96, 400, 400)"></path>
        <path
            d="M59.00000236511238 431.2366426077877C71.9166693901294 419.22414227452185 95.16667003516005 373.5766410081117 121.00000408519412 373.5766410081117C146.83333813522813 373.5766410081117 157.1666717552418 434.1428926884165 183.0000058052758 431.2366426077877C208.83333985530987 428.3303925271589 219.1666734753235 361.1766406640954 245.00000752535757 359.6266406210933C270.8333415753916 358.07664057809126 281.1666751954052 425.7341424551305 307.0000092454393 423.7966424013779C332.83334329547336 421.8591423476253 343.16667691548696 354.2016404705862 369.00001096552097 350.3266403630811C394.83334501555504 346.45164025557597 405.1666786355687 405.0028918799781 431.0000126856027 405.19664188535336C456.8333467356368 405.39039189072867 467.16668035565044 341.95664013087 493.0000144056845 351.25664038888226C518.8333484557185 360.55664064689455 529.1666820757321 448.28664308081017 555.0000161257661 449.8366431238122C580.8333501758003 451.3866431668143 591.1666837958139 366.25289080492706 617.000017845848 358.6966405952921C642.8333518958821 351.14039038565716 653.1666855158957 412.2103920799376 679.0000195659296 413.5666421175644C704.8333536159636 414.9228921551912 728.0833542609943 375.28164105541396 741.0000212860114 365.20664077590067 "
            transform="rotate(93, 400, 400)"></path>
        <path
            d="M70.00000228881842 430.2290041761431C82.50000263560909 418.60400385362783 105.00000325983231 374.4290026280696 130.00000395341365 374.4290026280696C155.00000464699497 374.4290026280696 165.00000492442751 433.04150425417106 190.00000561800886 430.2290041761431C215.0000063115902 427.41650409811524 225.00000658902275 362.42900229515055 250.00000728260406 360.9290022535357C275.00000797618543 359.4290022119208 285.000008253618 424.9040040284103 310.0000089471993 423.0290039763917C335.00000964078066 421.1540039243731 345.00000991821315 355.6790021078836 370.0000106117945 351.9290020038464C395.00001130537584 348.17900189980924 405.0000115828084 404.84150347181134 430.0000122763897 405.0290034770132C455.000012969971 405.216503482215 465.0000132474036 343.82900177912603 490.00001394098496 352.82900202881535C515.0000146345662 361.8290022785046 525.0000149119987 446.7290046339068 550.0000156055801 448.2290046755217C575.0000162991615 449.7290047171366 585.000016576594 367.3415024314393 610.0000172701755 360.02900222856675C635.0000179637568 352.71650202569424 645.0000182411893 411.8165036653205 670.0000189347705 413.1290037017335C695.0000196283519 414.44150373814654 717.5000202525752 376.079002673846 730.0000205993658 366.32900240334925 "
            transform="rotate(90, 400, 400)"></path>
        <path
            d="M81.00000221252448 429.22137337389313C93.08333588108879 417.98387306212834 114.83333648450457 375.28137187742203 139.0000038216332 375.28137187742203C163.1666711587618 375.28137187742203 172.83333809361326 431.9401234493201 197.0000054307419 429.22137337389313C221.16667276787052 426.5026232984662 230.833339702722 363.6813715556003 255.00000703985063 362.2313715153726C279.16667437697924 360.78137147514485 288.83334131183074 424.07387323108475 313.00000864895935 422.2613731808001C337.16667598608797 420.44887313051544 346.8333429209394 357.15637137457554 371.000010258068 353.5313712740063C395.16667759519663 349.906371173437 404.8333445300481 404.68012269303904 429.00001186717674 404.8613726980675C453.16667920430535 405.04262270309596 462.8333461391569 345.7013710567766 487.00001347628546 354.4013712981429C511.1666808134141 363.1013715395092 520.8333477482655 445.17137381639805 545.0000150853941 446.6213738566257C569.1666824225229 448.07137389685346 578.8333493573742 368.43012168734606 603.000016694503 361.36137149123596C627.1666840316316 354.29262129512585 636.8333509664831 411.4226228800979 661.0000183036116 412.69137291529717C685.1666856407402 413.96012295049644 706.9166862441559 376.87637192167256 719.0000199127203 367.45137166019236 "
            transform="rotate(87, 400, 400)"></path>
        <path
            d="M92.00000213623053 428.2137387569459C103.6666691265685 417.3637384559315 124.66666970917683 376.1337373120772 148.00000368985275 376.1337373120772C171.33333767052864 376.1337373120772 180.666671262799 430.8387388297719 204.00000524347493 428.2137387569459C227.33333922415085 425.5887386841198 236.66667281642125 364.93373700135277 260.00000679709717 363.5337369625122C283.33334077777306 362.1337369236717 292.66667437004344 423.2437386190619 316.0000083507193 421.4937385705112C339.3333423313953 419.7437385219605 348.66667592366565 358.63373682657027 372.00000990434154 355.13373672946886C395.3333438850174 351.6337366323675 404.6666774772878 404.5187380995695 428.00001145796375 404.69373810442454C451.3333454386397 404.8687381092796 460.6666790309101 347.5737365197299 484.000013011586 355.9737367527732C507.33334699226185 364.37373698581655 516.6666805845323 443.61373918419196 540.0000145652082 445.01373922303253C563.3333485458841 446.41373926187305 572.6666821381544 369.5187371285556 596.0000161188304 362.6937369392079C619.3333500995063 355.8687367498602 628.6666836917767 411.02873828017806 652.0000176724526 412.2537383141635C675.3333516531285 413.478738348149 696.3333522357368 377.6737373548018 708.0000192260748 368.5737371023382 "
            transform="rotate(84, 400, 400)"></path>
        <path
            d="M103.00000205993659 427.2061003253013C114.25000237204819 416.7436000350375 134.5000029338491 376.98609893203513 157.00000355807228 376.98609893203513C179.50000418229547 376.98609893203513 188.5000044319848 429.7373503955264 211.00000505620795 427.2061003253013C233.50000568043117 424.6748502550762 242.50000593012047 366.18609863240795 265.0000065543437 364.8360985949546C287.5000071785669 363.4860985575012 296.5000074282562 422.4136001923418 319.0000080524794 420.72610014552504C341.5000086767026 419.0386000987083 350.50000892639184 360.11109846386773 373.00000955061506 356.73609837023423C395.5000101748383 353.3610982766007 404.5000104245276 404.35734969140265 427.00001104875076 404.5260996960843C449.500011672974 404.694849700766 458.5000119226633 349.4460981679859 481.00001254688647 357.54609839270626C503.50001317110963 365.6460986174266 512.5000134207988 442.0561007372886 535.0000140450221 443.406100774742C557.5000146692455 444.7561008121954 566.5000149189347 370.60734875506785 589.0000155431579 364.02609857248257C611.5000161673811 357.44484838989723 620.5000164170704 410.6348498655609 643.0000170412935 411.81609989833265C665.5000176655168 412.99734993110434 685.7500182273176 378.47109897323384 697.0000185394292 369.6960987297868 "
            transform="rotate(81, 400, 400)"></path>
        <path
            d="M114.00000198364263 426.1984733377485C124.83333561752788 416.1234730582353 144.33333615852135 377.8384719960848 166.0000034262918 377.8384719960848C187.6666706940623 377.8384719960848 196.3333376011705 428.63597340537274 218.000004868941 426.1984733377485C239.6666721367115 423.76097327012434 248.3333390438197 367.438471707555 270.0000063115902 366.13847167148873C291.6666735793607 364.8384716354225 300.33334048646896 421.5834732097134 322.0000077542394 419.9584731646306C343.6666750220099 418.3334731195479 352.3333419291181 361.58847154525694 374.0000091968886 358.3384714550914C395.6666764646591 355.0884713649258 404.3333433717673 404.1959727273276 426.0000106395378 404.3584727318359C447.66667790730827 404.52097273634416 456.3333448144165 351.3184712603337 478.00001208218697 359.1184714767311C499.66667934995746 366.9184716931285 508.33334625706556 440.49847373447705 530.0000135248362 441.7984737705433C551.6666807926067 443.09847380660955 560.3333476997147 371.69597182567185 582.0000149674854 365.358471649849C603.6666822352558 359.0209714740261 612.3333491423641 410.24097289503555 634.0000164101345 411.37847292659353C655.666683677905 412.5159729581515 675.1666842188985 379.26847203575767 686.0000178527837 370.8184718013272 "
            transform="rotate(78, 400, 400)"></path>
        <path
            d="M125.00000190734869 425.19083872080125C135.41666886300757 415.5033384520385 154.1666693831936 378.69083743074 175.00000329451137 378.69083743074C195.83333720582914 378.69083743074 204.16667077035626 427.5345887858245 225.00000468167406 425.19083872080125C245.83333859299182 422.847088655778 254.16667215751897 368.6908371533074 275.00000606883674 367.4408371186284C295.8333399801545 366.1908370839493 304.16667354468166 420.7533385976906 325.0000074559994 419.1908385543417C345.8333413673172 417.6283385109929 354.16667493184434 363.0658369972516 375.00000884316205 359.94083691055397C395.8333427544799 356.81583682385633 404.166676319007 404.03458813385805 425.0000102303248 404.19083813819293C445.83334414164256 404.3470881425278 454.1666777061697 353.190836723287 475.0000116174875 360.6908369313614C495.83334552880524 368.1908371394358 504.1666790933323 438.94083910227096 525.0000130046501 440.1908391369501C545.8333469159679 441.44083917162914 554.166680480495 372.7845872668814 575.0000143918128 366.6908370978209C595.8333483031306 360.59708692876046 604.1666818676579 409.8470882951157 625.0000157789755 410.9408383254599C645.8333496902933 412.0345883558041 664.5833502104794 380.06583746888697 675.0000171661382 371.940837243473 "
            transform="rotate(75, 400, 400)"></path>
        <path
            d="M136.00000183105476 424.183204103854C146.00000210848728 414.8832038458417 164.00000260786584 379.54320286539513 184.00000316273093 379.54320286539513C204.00000371759597 379.54320286539513 212.000003939542 426.4332041662763 232.00000449440708 424.183204103854C252.00000504927215 421.9332040414317 260.0000052712182 369.94320259905993 280.0000058260833 368.743202565768C300.0000063809483 367.5432025324761 308.00000660289436 419.9232039856677 328.00000715775946 418.42320394405283C348.00000771262455 416.92320390243793 356.00000793457053 364.54320244924634 376.0000084894356 361.5432023660166C396.00000904430067 358.5432022827868 404.0000092662467 403.8732035403885 424.0000098211118 404.02320354455C444.0000103759769 404.17320354871146 452.0000105979229 355.0632021862403 472.000011152788 362.2632023859917C492.000011707653 369.46320258574315 500.00001192959905 437.3832044700649 520.0000124844642 438.5832045033568C540.0000130393292 439.7832045366487 548.0000132612753 373.8732027080909 568.0000138161404 368.02320254579286C588.0000143710055 362.1732023834948 596.0000145929514 409.45320369519584 616.0000151478165 410.5032037243263C636.0000157026815 411.55320375345667 654.00001620206 380.8632029020162 664.0000164794926 373.0632026856189 "
            transform="rotate(72, 400, 400)"></path>
        <path
            d="M146.9999864959717 423.1755694869067C156.5833200951779 414.26306923964495 173.83332057374906 380.3955683000503 192.9999877721614 380.3955683000503C212.16665497057375 380.3955683000503 219.8333218499387 425.33181954672807 238.99998904835104 423.1755694869067C258.1666562467634 421.0193194270853 265.8333231261284 371.1955680448124 284.9999903245407 370.0455680129076C304.1666575229531 368.8955679810029 311.83332440231806 419.0930693736449 330.9999916007304 417.65556933376394C350.1666587991428 416.218069293883 357.83332567850766 366.02056790124107 376.99999287692003 363.1455678214792C396.1666600753324 360.27056774171734 403.8333269546974 403.7118189469189 422.99999415310975 403.855568950907C442.1666613515221 403.9993189548951 449.83332823088705 356.93556764919356 468.9999954292994 363.83556784062205C488.16666262771173 370.7355680320505 495.83332950707666 435.82556983785884 514.9999967054891 436.9755698697636C534.1666639039015 438.1255699016683 541.8333307832664 374.9618181493004 560.9999979816788 369.3555679937648C580.1666651800912 363.74931783822916 587.8333320594561 409.059319095276 606.9999992578685 410.06556912319263C626.1666664562807 411.0718191511093 643.4166669348518 381.6605683351455 653.000000534058 374.1855681277647 "
            transform="rotate(69, 400, 400)"></path>
        <path
            d="M157.99998641967778 422.1679386846567C167.1666533406576 413.64293844814546 183.6666537984213 381.24793754940276 201.99998764038094 381.24793754940276C220.33332148234058 381.24793754940276 227.66665501912445 424.23043874187715 245.9999888610841 422.1679386846567C264.33332270304373 420.10543862743623 271.6666562398276 372.4479373052621 289.99999008178725 371.34793727474454C308.3333239237469 370.24793724422693 315.6666574605308 418.26293857631924 333.99999130249046 416.8879385381723C352.3333251444501 415.5129385000253 359.6666586812339 367.497937167933 377.99999252319355 364.7479370916391C396.3333263651532 361.9979370153451 403.6666599019371 403.5504381681466 421.99999374389677 403.6879381719614C440.3333275858564 403.82543817577607 447.6666611226403 358.80793692684415 465.9999949645999 365.4079371099496C484.3333288065595 372.0079372930551 491.6666623433434 434.26793902035 509.9999961853031 435.3679390508676C528.3333300272627 436.4679390813852 535.6666635640465 376.05043740520716 553.9999974060063 370.687937256434C572.3333312479659 365.3254371076608 579.6666647847499 408.6654383100534 597.9999986267094 409.6279383367563C616.3333324686689 410.59043836345916 632.8333329264326 382.4579375829721 641.9999998474125 375.30793738460784 "
            transform="rotate(66, 400, 400)"></path>
        <path
            d="M168.99998634338385 421.1603002530121C177.7499865861373 413.0228000272514 193.49998702309355 382.10029916936065 210.9999875086005 382.10029916936065C228.4999879941074 382.10029916936065 235.49998818831023 423.12905030763164 252.99998867381714 421.1603002530121C270.49998915932406 419.1915501983926 277.49998935352687 373.7002989363173 294.9999898390338 372.6502989071869C312.4999903245407 371.6002988780565 319.4999905187435 417.43280014959913 336.99999100425043 416.12030011318615C354.49999148975735 414.8078000767731 361.49999168396016 368.9752988052304 378.9999921694671 366.3502987324044C396.49999265497405 363.72529865957836 403.4999928491768 403.38904975997986 420.9999933346837 403.52029976362115C438.4999938201907 403.65154976726245 445.4999940143935 360.68029857510015 462.9999944999004 366.98029874988265C480.4999949854073 373.28029892466515 487.4999951796101 432.7103005734467 504.99999566511707 433.7603006025771C522.4999961506239 434.81030063170755 529.4999963448267 377.1390490317194 546.9999968303338 372.02029888970867C564.4999973158407 366.90154874769786 571.4999975100434 408.27154989543624 588.9999979955503 409.1902999209254C606.4999984810572 410.10904994641453 622.2499989180135 383.2552992014041 630.999999160767 376.43029901205637 "
            transform="rotate(63, 400, 400)"></path>
        <path
            d="M179.9999862670899 420.15266563606485C188.33331983161702 412.4026654210546 203.3333202477658 382.9526646040158 219.99998737682003 382.9526646040158C236.66665450587425 382.9526646040158 243.33332135749595 422.02766568808346 259.9999884865502 420.15266563606485C276.6666556156044 418.27766558404625 283.33332246722614 374.95266438206977 299.99998959628033 373.95266435432654C316.6666567253345 372.95266432658326 323.3333235769563 416.6026655375763 339.9999907060105 415.35266550289725C356.6666578350647 414.10266546821816 363.3333246866864 370.45266425722514 379.9999918157406 367.952664187867C396.6666589447948 365.4526641185089 403.33332579641655 403.2276651665103 419.9999929254708 403.3526651699782C436.666660054525 403.4776651734461 443.3333269061467 362.5526640380534 459.9999940352009 368.55266420451295C476.6666611642551 374.5526643709725 483.33332801587676 431.1526659412406 499.99999514493106 432.1526659689839C516.6666622739854 433.15266599672714 523.333329125607 378.22766447292895 539.9999962546613 373.35266433768055C556.6666633837156 368.4776642024322 563.3333302353371 407.8776652955164 579.9999973643913 408.75266531979173C596.6666644934455 409.6276653440671 611.6666649095944 384.05266463453336 619.9999984741214 377.5526644542022 "
            transform="rotate(60, 400, 400)"></path>
        <path
            d="M190.99998619079594 419.14503674116344C198.9166530770967 411.78253653690376 213.16665347243807 383.80503576071686 228.99998724503956 383.80503576071686C244.83332101764108 383.80503576071686 251.1666545266817 420.9262867905811 266.99998829928325 419.14503674116344C282.8333220718847 417.36378669174576 289.16665558092535 376.20503554986817 304.99998935352687 375.25503552351205C320.83332312612833 374.305035497156 327.166656635169 415.77253664759934 342.9999904077705 414.5850366146542C358.833324180372 413.3975365817091 365.1666576894126 371.93003543126576 380.9999914620141 369.5550353653755C396.8333252346156 367.18003529948527 403.1666587436563 403.0662862950866 418.99999251625775 403.18503629838114C434.83332628885927 403.30378630167564 441.1666597978999 364.42503522305265 456.99999357050143 370.12503538118915C472.8333273431029 375.8250355393257 479.1666608521435 429.59503703108044 494.99999462474506 430.54503705743656C510.8333283973466 431.4950370837926 517.1666619063872 379.3162856361843 532.9999956789886 374.6850355076984C548.8333294515903 370.05378537921246 555.1666629606309 407.4837864176424 570.9999967332324 408.31503644070403C586.8333305058338 409.1462864637656 601.0833309011753 384.85003578970856 608.9999977874759 378.67503561839396 "
            transform="rotate(57, 400, 400)"></path>
        <path
            d="M201.999986114502 418.1374040315648C209.49998632257638 411.1624038380556 222.99998669711033 384.65740310272065 237.99998711325912 384.65740310272065C252.99998752940792 384.65740310272065 258.99998769586745 419.82490407838156 273.99998811201624 418.1374040315648C288.9999885281651 416.44990398474806 294.99998869462456 377.45740290296925 309.9999891107734 376.5574028780003C324.9999895269222 375.6574028530314 330.99998969338174 414.9424039429251 345.99999010953053 413.81740391171394C360.9999905256793 412.69240388050275 366.9999906921388 373.40740279060907 381.99999110828765 371.15740272818675C396.99999152443644 368.90740266576444 402.99999169089597 402.9049036089657 417.99999210704476 403.0174036120868C432.99999252319355 403.1299036152079 438.99999268965314 366.29740259335455 453.99999310580193 371.6974027431681C468.9999935219507 377.0974028929817 474.9999936884102 428.03740430622304 489.99999410455905 428.93740433119194C504.9999945207079 429.83740435616085 510.9999946871674 380.4049029847425 525.9999951033162 376.01740286301896C540.9999955194651 371.62990274129544 546.9999956859245 407.0899037250712 561.9999961020733 407.877403746919C576.9999965182221 408.66490376876686 590.499996892756 385.6474031301865 597.9999971008303 379.79740296788844 "
            transform="rotate(54, 400, 400)"></path>
        <path
            d="M212.99998603820805 417.12976750726887C220.08331956805608 410.5422673245102 232.8333199217826 385.50976663002723 246.99998698147868 385.50976663002723C261.16665404117475 385.50976663002723 266.8333208650532 418.7235175514847 280.9999879247493 417.12976750726887C295.16665498444536 415.5360174630531 300.83332180832383 378.70976644137306 314.99998886801995 377.8597664177913C329.166655927716 377.0097663942096 334.83332275159444 414.1122674235536 348.99998981129056 413.0497673940764C363.1666568709866 411.9872673645992 368.83332369486504 374.8847663352551 382.99999075456117 372.75976627630075C397.16665781425723 370.6347662173463 402.8333246381357 402.7435171081475 416.9999916978318 402.8497671110952C431.1666587575279 402.95601711404294 436.8333255814063 368.1697661489592 450.99999264110244 373.26976629044975C465.1666597007985 378.3697664319404 470.8333265246769 426.4797677666683 484.99999358437304 427.32976779025006C499.16666064406917 428.17976781383186 504.8333274679476 381.49351651860337 518.9999945276437 377.34976640364226C533.1666615873398 373.20601628868116 538.8333284112182 406.6960172178027 552.9999954709143 407.43976723843673C567.1666625306103 408.1835172590708 579.9166628843368 386.44476665596716 586.9999964141849 380.91976650268566 "
            transform="rotate(51, 400, 400)"></path>
        <path
            d="M223.9999859619141 416.1221367050189C230.6666528135358 409.9221365330107 242.66665314645485 386.36213587937965 255.99998684969822 386.36213587937965C269.3333205529416 386.36213587937965 274.66665403423895 417.6221367466337 287.99998773748234 416.1221367050189C301.3333214407257 414.622136663404 306.6666549220231 379.96213570182283 319.99998862526644 379.1621356796282C333.33332232850984 378.3621356574336 338.6666558098072 413.282136626228 351.99998951305054 412.2821365984848C365.33332321629393 411.2821365707415 370.6666566975913 376.3621356019471 383.9999904008347 374.3621355464606C397.3333241040781 372.3621354909741 402.66665758537545 402.5821363293752 415.99999128861884 402.6821363321495C429.3333249918621 402.78213633492385 434.66665847315954 370.0421354266097 447.9999921764029 374.8421355597774C461.3333258796463 379.642135692945 466.6666593609436 424.9221369491595 479.99999306418704 425.7221369713541C493.33332676743044 426.5221369935487 498.6666602487278 382.58213577451016 511.99999395197113 378.68213566631147C525.3333276552146 374.78213555811277 530.666661136512 406.3021364325801 543.9999948397553 407.0021364520004C557.3333285429986 407.70213647142066 569.3333288759177 387.2421359037937 575.9999957275394 382.0421357595288 "
            transform="rotate(48, 400, 400)"></path>
        <path
            d="M234.99998588562016 415.11450208807156C241.2499860590155 409.3020019268139 252.49998637112708 387.2145013140348 264.99998671791775 387.2145013140348C277.4999870647084 387.2145013140348 282.49998720342467 416.52075212708553 294.99998755021534 415.11450208807156C307.499987897006 413.70825204905765 312.4999880357223 381.2145011475753 324.999988382513 380.46450112676786C337.49998872930365 379.7145011059604 342.49998886801995 412.45200201420516 354.9999892148106 411.5145019881959C367.4999895616013 410.57700196218656 372.49998970031754 377.83950105394183 384.9999900471082 375.9645010019232C397.4999903938989 374.0895009499046 402.49999053261513 402.42075173590564 414.9999908794058 402.51450173850657C427.49999122619647 402.6082517411075 432.4999913649127 371.91450088956304 444.9999917117034 376.4145010144077C457.49999205849406 380.9145011392523 462.4999921972103 423.3645023169534 474.999992544001 424.1145023377609C487.4999928907917 424.8645023585683 492.49999302950795 383.67075121571963 504.9999933762987 380.0145011142834C517.4999937230893 376.3582510128471 522.4999938618056 405.90825183266026 534.9999942085963 406.56450185086675C547.4999945553868 407.2207518690733 558.7499948674986 388.03950133692297 564.9999950408939 383.1645012016746 "
            transform="rotate(45, 400, 400)"></path>
        <path
            d="M245.9999858093262 414.1068674711243C251.83331930449518 408.68186732061713 262.33331959579937 388.06686674868996 273.9999865861373 388.06686674868996C285.66665357647526 388.06686674868996 290.33332037261044 415.41936750753734 301.9999873629484 414.1068674711243C313.6666543532864 412.79436743471126 318.3333211494216 382.4668665933277 329.9999881397595 381.76686657390746C341.66665513009747 381.0668665544872 346.33332192623266 411.6218674021823 357.9999889165706 410.74686737790694C369.66665590690855 409.8718673536316 374.3333227030438 379.3168665059365 385.99998969338174 377.5668664573858C397.6666566837197 375.8168664088351 402.3333234798548 402.2593671424361 413.9999904701928 402.3468671448636C425.6666574605308 402.43436714729114 430.33332425666595 373.7868663525163 441.99999124700395 377.986866469038C453.66665823734184 382.18686658555964 458.3333250334771 421.8068676847473 469.999992023815 422.50686770416763C481.66665901415297 423.2068677235879 486.33332581028816 384.75936665692916 497.99999280062616 381.3468665622553C509.6666597909641 377.93436646758147 514.3333265870992 405.51436723274037 525.9999935774372 406.12686724973315C537.6666605677751 406.7393672667259 548.1666608590793 388.83686677005227 553.9999943542483 384.2868666438205 "
            transform="rotate(42, 400, 400)"></path>
        <path
            d="M256.99998573303225 413.0992347615256C262.41665254997486 408.061734621769 272.1666528204716 388.91923409069375 282.9999864543569 388.91923409069375C293.8333200882421 388.91923409069375 298.1666535417962 414.31798479533774 308.99998717568144 413.0992347615256C319.83332080956666 411.88048472771357 324.1666542631208 383.71923394642886 334.999987897006 383.06923392839576C345.8333215308913 382.4192339103626 350.1666549844454 410.7917346975081 360.99998861833063 409.9792346749667C371.8333222522159 409.1667346524253 376.16665570577 380.7942338652798 386.99998933965526 379.16923382019706C397.8333229735405 377.54423377511426 402.1666564270946 402.0979844563152 412.9999900609798 402.17923445856934C423.83332369486504 402.2604844608235 428.1666571484192 375.6592337228182 438.9999907823044 379.5592338310169C449.83332441618967 383.4592339392156 454.16665786974374 420.2492349598899 464.999991503629 420.899234977923C475.8333251375143 421.5492349959561 480.1666585910683 385.8479840054873 490.99999222495364 382.67923391757586C501.83332585883886 379.51048382966445 506.166659312393 405.1204845401692 516.9999929462782 405.68923455594813C527.8333265801634 406.2579845717271 537.5833268506601 389.6342341105302 542.9999936676028 385.40923399331496 "
            transform="rotate(39, 400, 400)"></path>
        <path
            d="M267.9999856567383 412.09160014457836C272.99998579545456 407.44160001557225 281.9999860451438 389.77159952534896 291.99998632257643 389.77159952534896C301.9999866000089 389.77159952534896 305.99998671098194 413.2166001757895 315.9999869884145 412.09160014457836C325.99998726584704 410.9666001133672 329.99998737682006 384.9715993921813 339.99998765425255 384.37159937553537C349.9999879316851 383.77159935888943 353.9999880426581 409.9616000854852 363.99998832009067 409.2116000646778C373.9999885975232 408.46160004387036 377.9999887084962 382.27159931727454 387.9999889859287 380.77159927565964C397.9999892633613 379.2715992340448 401.9999893743343 401.93659986284564 411.99998965176684 402.0115998649264C421.9999899291994 402.0865998670071 425.9999900401724 377.5315991857715 435.9999903176049 381.1315992856472C445.99999059503745 384.73159938552294 449.99999070601046 418.69160032768383 459.999990983443 419.29160034432977C469.99999126087556 419.89160036097576 473.9999913718486 386.9365994466968 483.9999916492811 384.0115993655478C493.9999919267137 381.0865992843988 497.99999203768664 404.7265999402493 507.9999923151192 405.2515999548145C517.9999925925517 405.77659996937973 526.999992842241 390.4315995436595 531.9999929809572 386.5315994354608 "
            transform="rotate(36, 400, 400)"></path>
        <path
            d="M279.0000008392334 411.0839674349797C283.58333429972333 406.82146731672407 291.8333345286052 390.62396686735275 301.000001449585 390.62396686735275C310.1666683705648 390.62396686735275 313.8333351389567 412.11521746358994 323.0000020599366 411.0839674349797C332.16666898091637 410.0527174063695 335.83333574930833 386.22396674528244 345.00000267028815 385.6739667300236C354.166669591268 385.12396671476483 357.83333635965994 409.131467380811 367.00000328063976 408.4439673617375C376.1666702016196 407.75646734266405 379.8333369700115 383.7489666766179 389.0000038909913 382.3739666384709C398.16667081197113 380.9989666003239 401.8333375803631 401.7752171767247 411.0000045013429 401.84396717863206C420.16667142232274 401.9127171805394 423.8333381907147 379.40396655607344 433.00000511169446 382.70396664762615C442.1666720326743 386.0039667391789 445.83333880106625 417.1339676028264 455.00000572204607 417.68396761808515C464.1666726430259 418.233967633344 467.8333394114178 388.02521679525495 477.0000063323977 385.34396672086837C486.1666732533775 382.6627166464818 489.83334002176946 404.33271724767803 499.0000069427492 404.8139672610295C508.166673863729 405.29521727438095 516.4166740926108 391.22896688413744 521.0000075531008 387.6539667849553 "
            transform="rotate(33, 400, 400)"></path>
        <path
            d="M290.00000076293946 410.0763328180324C294.16666754520304 406.2013327105273 301.66666775327747 391.4763323020079 310.00000131780456 391.4763323020079C318.33333488233166 391.4763323020079 321.6666683081425 411.0138328440417 330.0000018726696 410.0763328180324C338.33333543719675 409.1388327920231 341.6666688630076 387.4763321910349 350.0000024275347 386.9763321771633C358.3333359920618 386.47633216329166 361.66666941787264 408.30133276878814 370.0000029823998 407.6763327514486C378.3333365469269 407.05133273410905 381.66666997273774 385.22633212861257 390.00000353726483 383.9763320939335C398.3333371017919 382.72633205925445 401.66667052760283 401.61383258325515 410.0000040921299 401.6763325849891C418.333337656657 401.73883258672305 421.6666710824679 381.2763320190267 430.00000464699497 384.27633210225645C438.3333382115221 387.27633218548624 441.6666716373329 415.57633297062034 450.00000520186006 416.07633298449196C458.3333387663872 416.57633299836357 461.666672192198 389.1138322364645 470.00000575672516 386.6763321688403C478.3333393212523 384.2388321012161 481.6666727470631 403.9388326477582 490.0000063115902 404.37633265989587C498.3333398761173 404.8138326720335 505.8333400841917 392.0263323172667 510.00000686645524 388.77633222710114 "
            transform="rotate(30, 400, 400)"></path>
        <path
            d="M301.00000068664554 409.0687020157824C304.75000079068275 405.5812019190278 311.5000009779497 392.3287015513603 319.00000118602406 392.3287015513603C326.5000013940985 392.3287015513603 329.5000014773283 409.9124520391908 337.00000168540265 409.0687020157824C344.5000018934771 408.22495199237403 347.5000019767068 388.72870145148465 355.00000218478124 388.27870143900014C362.50000239285566 387.8287014265157 365.5000024760854 407.47120197146256 373.00000268415977 406.908701955857C380.5000028922342 406.3462019402514 383.50000297546393 386.7037013953045 391.00000318353835 385.5787013640934C398.5000033916127 384.45370133288225 401.5000034748425 401.45245180448285 409.00000368291694 401.5087018060434C416.5000038909913 401.56495180760396 419.5000039742211 383.14870129667725 427.00000418229547 385.84870137158407C434.5000043903699 388.54870144649084 437.50000447359963 414.0187021531115 445.00000468167406 414.46870216559597C452.5000048897485 414.9187021780804 455.5000049729782 390.20245149237127 463.00000518105264 388.0087014315095C470.50000538912707 385.8149513706477 473.5000054723568 403.5449518625356 481.0000056804312 403.93870187345954C488.5000058885056 404.33245188438343 495.25000607577255 392.82370156509324 499.0000061798097 389.89870148394425 "
            transform="rotate(27, 400, 400)"></path>
        <path
            d="M311.999992980957 408.0610673988351C315.3333264067679 404.961067312831 321.3333265732274 393.1810669860155 327.9999934248491 393.1810669860155C334.6666602764708 393.1810669860155 337.3333270171195 408.81106741964254 343.99999386874117 408.0610673988351C350.66666072036287 407.3110673780277 353.33332746101155 389.9810668972371 359.99999431263325 389.5810668861398C366.66666116425495 389.18106687504246 369.3333279049036 406.6410673594397 375.99999475652527 406.14106734556805C382.66666160814697 405.64106733169643 385.33332834879565 388.18106684729923 391.99999520041735 387.181066819556C398.66666205203904 386.1810667918127 401.3333287926877 401.2910672110133 407.9999956443094 401.34106721240045C414.66666249593106 401.3910672137876 417.33332923657974 385.02106675963057 423.99999608820144 387.42106682621437C430.66666293982314 389.82106689279817 433.3333296804718 412.46106752090543 439.9999965320935 412.8610675320027C446.6666633837152 413.2610675431 449.3333301243639 391.29106693358074 455.9999969759856 389.3410668794814C462.6666638276073 387.39106682538204 465.333330568256 403.15106726261575 471.9999974198777 403.5010672723259C478.6666642714993 403.851067282036 484.66666443795884 393.62106699822255 487.9999978637697 391.0210669260901 "
            transform="rotate(24, 400, 400)"></path>
        <path
            d="M322.9999929046631 407.05343468923644C325.9166596522476 404.3409346139829 331.1666597978997 394.0334343280193 336.99999329306866 394.0334343280193C342.8333267882376 394.0334343280193 345.1666601863052 407.709684707443 350.99999368147417 407.05343468923644C356.8333271766432 406.39718467102995 359.1666605747108 391.2334342503382 364.9999940698798 390.88343424062805C370.83332756504876 390.5334342309179 373.1666609631163 405.81093465476545 378.9999944582853 405.3734346426278C384.8333279534543 404.9359346304901 387.1666613515219 389.6584342066426 392.99999484669087 388.7834341823672C398.83332834185984 387.9084341580919 401.1666617399274 401.12968452489235 406.99999523509643 401.1734345261061C412.8333287302654 401.2171845273199 415.166662128333 386.8934341299325 420.99999562350195 388.9934341881933C426.8333291186709 391.09343424645414 429.16666251673854 410.903434796048 434.9999960119075 411.2534348057581C440.8333295070765 411.6034348154683 443.1666629051441 392.3796842821389 448.9999964003131 390.67343423480196C454.83332989548205 388.967184187465 457.1666632935496 402.7571845700445 462.9999967887186 403.06343457854086C468.83333028388756 403.3696845870372 474.08333042953967 394.4184343387005 476.99999717712416 392.1434342755846 "
            transform="rotate(21, 400, 400)"></path>
        <path
            d="M333.99999282836916 406.0458010259635C336.4999928977273 403.72080096146044 340.9999930225719 394.8858007163488 345.9999931612882 394.8858007163488C350.99999330000446 394.8858007163488 352.999993355491 406.60830104156906 357.9999934942073 406.0458010259635C362.9999936329235 405.48330101035793 364.99999368841003 392.485800649765 369.9999938271263 392.18580064144203C374.9999939658426 391.885800633119 376.99999402132903 404.9808009964169 381.99999416004533 404.6058009860132C386.99999429876164 404.2308009756095 388.9999943542481 391.1358006123116 393.99999449296433 390.38580059150416C398.99999463168064 389.6358005706967 400.99999468716715 400.9683008850971 405.9999948258834 401.0058008861375C410.9999949645997 401.04330088717785 412.9999950200862 388.76580054656006 417.99999515880245 390.5658005964979C422.9999952975187 392.3658006464358 424.99999535300526 409.3458011175162 429.9999954917215 409.6458011258392C434.99999563043775 409.9458011341622 436.9999956859243 393.46830067702274 441.99999582464056 392.0058006364482C446.9999959633568 390.5433005958737 448.9999960188433 402.363300923799 453.9999961575596 402.6258009310816C458.99999629627587 402.8883009383642 463.4999964211205 395.21580072550404 465.9999964904786 393.2658006714047 "
            transform="rotate(18, 400, 400)"></path>
        <path
            d="M344.99999656677244 405.0381673626905C347.08332995790425 403.100667308938 350.83333006194147 395.73816710467827 354.99999684420504 395.73816710467827C359.16666362646856 395.73816710467827 360.833330339374 405.5069173756952 364.99999712163753 405.0381673626905C369.1666639039011 404.56941734968586 370.8333306168065 393.73816704919176 374.9999973990701 393.48816704225595C379.16666418133366 393.23816703532015 380.83333089423905 404.1506673380684 384.99999767650263 403.83816732939863C389.16666445876615 403.52566732072887 390.8333311716716 392.6131670179806 394.9999979539351 391.98816700064106C399.1666647361987 391.36316698330154 400.83333144910415 400.80691724530186 404.9999982313677 400.83816724616884C409.16666501363125 400.8694172470358 410.8333317265367 390.6381669631877 414.9999985088002 392.13816700480254C419.1666652910638 393.63816704641744 420.8333320039692 407.7881674389845 424.99999878623277 408.0381674459203C429.16666556849634 408.2881674528561 430.83333228140174 394.5569170719065 434.9999990636653 393.33816703809447C439.1666658459289 392.11941700428235 440.8333325588343 401.9694172775534 444.9999993410978 402.18816728362225C449.1666661233614 402.4069172896911 452.9166662273986 396.01316711230766 454.99999961853035 394.38816706722486 "
            transform="rotate(15, 400, 400)"></path>
        <path
            d="M355.9999964904785 404.0305346530919C357.66666320338396 402.4805346100898 360.6666632866137 396.59053444668206 363.99999671242455 396.59053444668206C367.3333301382354 396.59053444668206 368.66666350855974 404.4055346634956 371.9999969343706 404.0305346530919C375.33333036018144 403.65553464268817 376.6666637305058 394.99053440229284 379.9999971563166 394.7905343967442C383.3333305821275 394.59053439119555 384.6666639524518 403.3205346333942 387.9999973782626 403.07053462645837C391.3333308040735 402.8205346195225 392.66666417439785 394.09053437732393 395.99999760020864 393.5905343634523C399.33333102601955 393.0905343495807 400.6666643963439 400.645534559181 403.9999978221547 400.67053455987457C407.33333124796553 400.69553456056815 408.6666646182899 392.5105343334896 411.9999980441007 393.7105343667815C415.33333146991157 394.9105344000734 416.6666648402359 406.23053471412703 419.99999826604676 406.4305347196757C423.3333316918576 406.6305347252243 424.66666506218195 395.6455344204647 427.9999984879928 394.67053439341504C431.33333191380365 393.69553436636534 432.666665284128 401.57553458498217 435.99999870993884 401.75053458983723C439.33333213574963 401.92553459469235 442.3333322189794 396.8105344527856 443.9999989318849 395.51053441671934 "
            transform="rotate(12, 400, 400)"></path>
        <path
            d="M366.9999964141846 403.02290003614456C368.2499964488636 401.86040000389306 370.499996511286 397.4428998813372 372.9999965806441 397.4428998813372C375.49999665000223 397.4428998813372 376.49999667774546 403.3041500439474 378.99999674710364 403.02290003614456C381.49999681646176 402.7416500283418 382.49999684420504 396.24289984804534 384.9999969135631 396.09289984388386C387.4999969829213 395.9428998397224 388.4999970106645 402.49040002137133 390.9999970800227 402.3029000161695C393.4999971493808 402.11540001096756 394.49999717712404 395.56789982931866 396.99999724648217 395.1928998189149C399.49999731584035 394.8178998085112 400.4999973435836 400.4841499657114 402.9999974129417 400.5028999662316C405.4999974822998 400.5216499667518 406.4999975100431 394.38289979644287 408.9999975794012 395.28289982141183C411.49999764875935 396.18289984638074 412.49999767650263 404.67290008192094 414.99999774586075 404.8229000860824C417.4999978152189 404.9729000902439 418.49999784296216 396.7341498616742 420.9999979123203 396.0028998413869C423.4999979816784 395.2716498210997 424.4999980094217 401.18164998506234 426.9999980787798 401.31289998870363C429.49999814813793 401.44414999234493 431.74999821056025 397.6078998859149 432.99999824523934 396.6328998588652 "
            transform="rotate(9, 400, 400)"></path>
        <path
            d="M378.0000001525879 402.01526732654594C378.8333335090406 401.24026730504494 380.3333335506555 398.29526722334106 382.0000002635609 398.29526722334106C383.66666697646633 398.29526722334106 384.3333336616285 402.2027673317478 386.0000003745339 402.01526732654594C387.66666708743935 401.8277673213441 388.3333337726015 397.4952672011464 390.0000004855069 397.3952671983721C391.66666719841237 397.2952671955978 392.33333388357454 401.66026731669706 394.00000059647994 401.53526731322916C395.6666673093854 401.41026730976125 396.33333399454756 397.04526718866197 398.00000070745295 396.79526718172616C399.6666674203584 396.54526717479035 400.3333341055206 400.3227672795905 402.000000818426 400.3352672799373C403.6666675313314 400.3477672802841 404.33333421649354 396.2552671667448 406.000000929399 396.85526718339077C407.66666764230445 397.4552672000367 408.33333432746656 403.11526735706354 410.000001040372 403.21526735983787C411.66666775327747 403.3152673626122 412.3333344384396 397.82276721023237 414.00000115134503 397.3352671967075C415.6666678642505 396.84776718318267 416.3333345494126 400.7877672924911 418.00000126231805 400.8752672949186C419.66666797522345 400.96276729734615 421.16666801683834 398.40526722639277 422.00000137329107 397.75526720835967 "
            transform="rotate(6, 400, 400)"></path>
        <path
            d="M389.00000007629393 401.0076327095986C389.4166667545203 400.6201326988481 390.1666667753277 399.1476326579962 391.00000013178044 399.1476326579962C391.83333348823317 399.1476326579962 392.1666668308143 401.10138271219955 393.00000018726695 401.0076327095986C393.8333335437197 400.9138827069977 394.16666688630073 398.7476326468989 395.00000024275346 398.69763264551176C395.8333335992062 398.64763264412454 396.1666669417873 400.8301327046742 397.00000029823997 400.76763270294026C397.8333336546927 400.7051327012063 398.16666699727375 398.52263264065664 399.0000003537265 398.39763263718874C399.8333337101792 398.27263263372083 400.16666705276026 400.16138268612093 401.000000409213 400.1676326862943C401.8333337656657 400.1738826864677 402.16666710824677 398.1276326296981 403.0000004646995 398.42763263802107C403.8333338211522 398.72763264634403 404.1666671637333 401.55763272485746 405.000000520186 401.6076327262446C405.83333387663873 401.6576327276318 406.1666672192198 398.91138265144184 407.0000005756725 398.66763264467943C407.83333393212524 398.423882637917 408.1666672747063 400.39388269257125 409.000000631159 400.437632693785C409.8333339876117 400.4813826949988 410.5833340084192 399.20263265952207 411.00000068664554 398.8776326505055 "
            transform="rotate(3, 400, 400)"></path>
    </g>
</svg>