<svg id="Capa_4" data-name="Capa 4" xmlns="http://www.w3.org/2000/svg" viewBox="0 0 500 500"><defs><style>.cls-1{fill:#51abcc;}.cls-2{fill:#124789;}.cls-3{fill:#2977aa;}.cls-4{fill:#b7e0ed;}</style></defs><g id="Capa_6" data-name="Capa 6"><path class="cls-1" d="M285,396.26a262.13,262.13,0,0,1-47.86,4.54c122.78-38.95,189.61-141.27,137.72-238.28C481.84,237.09,426.07,372.47,285,396.26Z"/><path class="cls-2" d="M237.1,400.8c78-31.77,228.84-268.72-81-390.47C333.91,174.56,255.4,363.91,237.1,400.8Z"/><path class="cls-3" d="M237.1,400.8c121.42-80,144.07-225,29.39-328.82C456.22,155.76,421.24,343.16,237.1,400.8Z"/><path class="cls-4" d="M237.1,400.8c110.16,2.73,219.05-76.45,187.8-176.08C494,291.23,441.28,436.46,237.1,400.8Z"/></g><path class="cls-2" d="M480,370.73s-97.75,97.19-309.86,40.07c0,0-62.62-18-94.67,12.7-12.7,12.14-36.06,7.79-55.51,13.28,0,0,82.65,10,98.44,16.48s73,44.36,154.39,44.33C329.71,497.57,402.66,468.65,480,370.73Z"/></svg>