<svg xmlns="http://www.w3.org/2000/svg" version="1.1" xmlns:xlink="http://www.w3.org/1999/xlink" xmlns:svgjs="http://svgjs.dev/svgjs" viewBox="0 0 1422 800"><defs><linearGradient x1="50%" y1="0%" x2="50%" y2="100%" id="oooscillate-grad"><stop stop-color="#124789" stop-opacity="1" offset="0%"></stop><stop stop-color="#f2f3f7" stop-opacity="1" offset="100%"></stop></linearGradient></defs><g stroke-width="1" stroke="url(#oooscillate-grad)" fill="none" stroke-linecap="round"><path d="M 0 880 Q 355.5 -100 711 400 Q 1066.5 900 1422 880" stroke-dasharray="5 54" opacity="0.42"></path><path d="M 0 770 Q 355.5 -100 711 400 Q 1066.5 900 1422 770" stroke-dasharray="7 78" opacity="0.38"></path><path d="M 0 660 Q 355.5 -100 711 400 Q 1066.5 900 1422 660" stroke-dasharray="47 45" opacity="0.60"></path><path d="M 0 550 Q 355.5 -100 711 400 Q 1066.5 900 1422 550" stroke-dasharray="89 31" opacity="0.19"></path><path d="M 0 440 Q 355.5 -100 711 400 Q 1066.5 900 1422 440" stroke-dasharray="42 21" opacity="0.49"></path><path d="M 0 330 Q 355.5 -100 711 400 Q 1066.5 900 1422 330" stroke-dasharray="17 45" opacity="0.80"></path><path d="M 0 220 Q 355.5 -100 711 400 Q 1066.5 900 1422 220" stroke-dasharray="77 80" opacity="0.22"></path></g></svg>