<svg version="1.2" xmlns="http://www.w3.org/2000/svg" viewBox="0 0 1139 780" width="1139" height="780">
	<title>Logotipo Liber Salus Original</title>
	<style>
		.s0 { fill: #9ea2a5 } 
		.s1 { fill: #007baf } 
	</style>
	<g id="Capa 1">
		<g id="&lt;Group&gt;">
			<g id="&lt;Group&gt;">
				<path id="&lt;Compound Path&gt;" class="s0" d="m612.4 470.9c-29.8 8.2-26.4-18.5-25.3-24.4-19.4-2.6-42.4-5.2-65.9-6.5-37-2.2-71.7 17.3-119.5 22.4 0.1 0.2 0.2 0.3 0.2 0.3-58.5 7.2-125.6-18.4-162.4-35.5-17.2-7.9-10.4 31.2 3.3 52.6 34.7 54.5 93.9 99.5 200.6 99.5 65 0 108.8-28.7 164-69.9 69.5-51.9 110.2-50.5 110.2-50.5-20-3.8-71.8 2.9-105.2 12z"/>
				<path id="&lt;Path&gt;" class="s0" d="m395.4 421.3c38.5-12.2 133.6-5.3 194.5 14.3 14-5.4 2.2-34.1 2.2-34.1l-155.3-401.1-26.7 56.8c-23.4 46.7 47.2 213.3 47.2 213.3l-90.6-146.5-17.6 72.4c-11.7 55.8 66.8 151 66.8 151l-86.8-76.9c-18.4 59.9-7 106.6 7.6 137.1 0.2 0.4 18.5 26.3 58.7 13.7z"/>
			</g>
			<g id="&lt;Group&gt;">
				<path id="&lt;Compound Path&gt;" class="s1" d="m85.4 779.3h-84.9v-209.9h28.7v191.9h56.2z"/>
				<path id="&lt;Compound Path&gt;" class="s1" d="m130.5 591.9h-27.9v-28.8h27.9zm0 187.5h-27.9v-166.2h27.9z"/>
				<path id="&lt;Compound Path&gt;" class="s1" d="m201.2 631.1v-18h30.8c32.8 0 41.3 13.8 41.3 50.9v64.4c0 37.1-8.5 50.9-41.3 50.9h-73.7v-215.9h27.9v197.9h36c19.4 0 23.2-5 23.2-31.7v-66.8c0-26.6-3.8-31.7-23.2-31.7z"/>
				<path id="&lt;Compound Path&gt;" class="s1" d="m343.2 709.8v-17.3h15.5c19.4 0 23.2-5.7 23.2-22.2v-16.2c0-17.9-3.8-23-23.2-23h-11.4c-19.4 0-23.2 5.1-23.2 31.7v66.8c0 26.7 3.8 31.7 23.2 31.7h51.6v18h-61.5c-32.7 0-41.2-13.8-41.2-50.9v-64.4c0-37.1 8.5-50.9 41.2-50.9h31.2c32.7 0 41.2 13.8 41.2 39.2v18.3c0 25.5-8.5 39.2-41.2 39.2z"/>
				<path id="&lt;Compound Path&gt;" class="s1" d="m470.7 613.1h28.4v18h-18.6c-19.4 0-23.2 5.1-23.2 31.7v116.5h-27.8v-115.3c0-37.1 8.4-50.9 41.2-50.9z"/>
				<path id="&lt;Compound Path&gt;" class="s1" d="m641.9 779.3h-61.2v-18h55.7c15.6 0 23.5-6.6 23.5-40.7 0-29.9-4.3-35.3-26.2-35.3h-20.7c-27.6 0-37.2-14.7-37.2-57.5 0-36.8 11.2-58.4 42.1-58.4h53.2v18h-46.4c-15 0-22.4 7.5-22.4 36.2 0 27.8 3 34.4 22.4 34.4h19.4c29.5 0 42.3 10.2 42.3 58.1 0 43.1-12.3 63.2-44.5 63.2z"/>
				<path id="&lt;Compound Path&gt;" class="s1" d="m765.6 679.6v17.3h-11.7c-19.4 0-23.2 5.8-23.2 22.2v19.2c0 18 3.8 23 23.2 23h30.8v-98.5c0-26.6-3.8-31.7-23.2-31.7h-39.3v-18h49.1c32.8 0 41.3 13.8 41.3 50.9v115.3h-68.6c-32.7 0-41.2-13.8-41.2-39.2v-21.3c0-25.4 8.5-39.2 41.2-39.2z"/>
				<path id="&lt;Compound Path&gt;" class="s1" d="m866.6 779.3h-27.8v-215.9h27.8z"/>
				<path id="&lt;Compound Path&gt;" class="s1" d="m979.7 761.3v-148.2h27.8v166.2h-73.4c-32.8 0-41.3-13.8-41.3-50.9v-115.3h27.9v116.5c0 26.7 3.8 31.7 23.2 31.7z"/>
				<path id="&lt;Compound Path&gt;" class="s1" d="m1094.6 779.3h-60.3v-18h54.9c15.6 0 24-1.5 24-28.4 0-23.4-4.1-26.7-26.7-26.7h-20.5c-27 0-36.6-12.8-36.6-47 0-29 10.9-46.1 41.5-46.1h52.7v18h-45.9c-15 0-22.9 2.1-22.9 24.8 0 22.2 3.8 26.1 22.9 26.1h19.1c31.2 0 41.8 10.2 41.8 47.3 0 34.1-12 50-44 50z"/>
			</g>
		</g>
	</g>
</svg>