<svg version="1.2" xmlns="http://www.w3.org/2000/svg" viewBox="0 0 1139 780" width="1139" height="780">
	<title>Logotipo Liber Salus Original</title>
	<style>
		.s0 { fill: #9ea2a5 } 
		.s1 { fill: #007baf } 
	</style>
	<g id="Capa 1">
		<g id="&lt;Group&gt;">
			<g id="&lt;Group&gt;">
				<path id="&lt;Compound Path&gt;" class="s0" d="m612.4 470.9c-29.8 8.2-26.4-18.5-25.3-24.4-19.4-2.6-42.4-5.2-65.9-6.5-37-2.2-71.7 17.3-119.5 22.4 0.1 0.2 0.2 0.3 0.2 0.3-58.5 7.2-125.6-18.4-162.4-35.5-17.2-7.9-10.4 31.2 3.3 52.6 34.7 54.5 93.9 99.5 200.6 99.5 65 0 108.8-28.7 164-69.9 69.5-51.9 110.2-50.5 110.2-50.5-20-3.8-71.8 2.9-105.2 12z"/>
				<path id="&lt;Path&gt;" class="s0" d="m395.4 421.3c38.5-12.2 133.6-5.3 194.5 14.3 14-5.4 2.2-34.1 2.2-34.1l-155.3-401.1-26.7 56.8c-23.4 46.7 47.2 213.3 47.2 213.3l-90.6-146.5-17.6 72.4c-11.7 55.8 66.8 151 66.8 151l-86.8-76.9c-18.4 59.9-7 106.6 7.6 137.1 0.2 0.4 18.5 26.3 58.7 13.7z"/>
			</g>
			<!--   -->
		</g>
	</g>
</svg>